<?xml version="1.0" encoding="utf-8"?>
<!-- Generator: Adobe Illustrator 25.3.0, SVG Export Plug-In . SVG Version: 6.00 Build 0)  -->
<svg version="1.1" id="Layer_1" opacity="0.2" xmlns="http://www.w3.org/2000/svg" xmlns:xlink="http://www.w3.org/1999/xlink"
	 x="0px" y="0px" viewBox="0 0 1440 652" style="enable-background:new 0 0 1440 652;" xml:space="preserve">
<style type="text/css">
	.st0{fill:#FFFFFF;fill-opacity:0.25;}
</style>
<path class="st0" d="M515.2,0.8c0,7.3-6.1,13.5-13.4,13.4c-7.3,0-13.4-6.2-13.3-13.6c0.1-7.1,6-13.1,13.2-13.2
	C508.9-12.6,515.2-6.5,515.2,0.8z"/>
<path class="st0" d="M563.7-7.2c7.1-0.1,13.3,6,13.3,13.1c0.1,7.1-6,13.3-13.1,13.3c-7.1,0.1-13.3-6-13.3-13.1
	C550.6-0.9,556.6-7,563.7-7.2z"/>
<path class="st0" d="M752.6,488.1c0,7.2-6,13.1-13.2,12.9c-7-0.2-12.7-5.9-12.7-13c0-7.2,6-13.1,13.2-12.9
	C747,475.3,752.7,481.1,752.6,488.1z"/>
<path class="st0" d="M717.9,517c0.1,6.8-5.7,12.5-12.5,12.5c-6.6-0.1-12.1-5.6-12.2-12.2c-0.1-6.8,5.7-12.5,12.5-12.5
	C712.3,504.8,717.8,510.4,717.9,517z"/>
<path class="st0" d="M690,482.9c0,6.8-5.8,12.5-12.6,12.4c-6.6-0.1-12.1-5.7-12.1-12.3c0-6.8,5.8-12.5,12.6-12.4
	C684.5,470.7,690,476.3,690,482.9z"/>
<path class="st0" d="M724.1,454.9c0,6.8-5.8,12.5-12.5,12.4c-6.6-0.1-12.1-5.7-12.1-12.3c0-6.8,5.8-12.5,12.5-12.4
	C718.6,442.8,724.1,448.4,724.1,454.9z"/>
<path class="st0" d="M529.5,21.6c6.8-0.1,12.6,5.5,12.6,12.3c0.1,6.8-5.6,12.5-12.4,12.5c-6.6,0-12.2-5.4-12.4-12
	C517.1,27.5,522.7,21.7,529.5,21.6z"/>
<path class="st0" d="M451.8-5.3c0,6.7-5.7,12.2-12.3,12c-6.4-0.2-11.8-5.6-11.8-12c0-6.7,5.7-12.2,12.3-12
	C446.5-17.2,451.8-11.7,451.8-5.3z"/>
<path class="st0" d="M480.9,28.9c-0.1,6.6-5.8,12.1-12.3,12.1c-6.6-0.1-12.1-5.8-12.1-12.3c0.1-6.6,5.8-12.1,12.3-12.1
	C475.4,16.7,480.9,22.4,480.9,28.9z"/>
<path class="st0" d="M784.2,460.3c0,6.4-5.1,11.4-11.5,11.3c-6.4,0-11.4-5.1-11.3-11.5c0-6.4,5.1-11.4,11.5-11.3
	C779.3,448.8,784.3,453.9,784.2,460.3z"/>
<path class="st0" d="M767.5,510.7c6.4-0.1,11.5,4.8,11.7,11.2c0.1,6.7-4.9,11.8-11.6,11.8c-6.4,0-11.4-5-11.4-11.5
	C756.1,515.9,761,510.8,767.5,510.7z"/>
<path class="st0" d="M745.6,550.2c0,6-5.4,11.2-11.3,11.1c-6-0.1-11.2-5.5-10.9-11.5c0.2-5.8,5.3-10.8,11-10.8
	C740.4,539,745.7,544.3,745.6,550.2z"/>
<path class="st0" d="M406.8,12.7c5.9,0.1,10.8,5.1,10.8,11.1c0,6.1-5.4,11.2-11.4,10.9c-5.9-0.3-10.7-5.4-10.5-11.3
	C395.9,17.4,401,12.6,406.8,12.7z"/>
<path class="st0" d="M592,28.2c5.9,0.1,10.8,5.1,10.8,11c0,6.1-5.4,11.2-11.4,10.9c-5.9-0.3-10.7-5.4-10.5-11.3
	C581.1,33,586.1,28.1,592,28.2z"/>
<path class="st0" d="M655,510.7c0.1,5.9-4.4,10.5-10.2,10.6c-5.9,0.1-10.5-4.4-10.6-10.2c-0.1-5.9,4.4-10.5,10.2-10.6
	C650.3,500.4,654.9,504.8,655,510.7z"/>
<path class="st0" d="M801.9,483.6c6,0.1,10.7,4.9,10.7,10.9c-0.1,6-4.9,10.7-10.9,10.7c-6-0.1-10.7-4.9-10.7-10.9
	C791,488.2,795.8,483.5,801.9,483.6z"/>
<path class="st0" d="M706,640.1c0,6-4.7,10.8-10.7,10.9c-6,0-10.8-4.7-10.8-10.7c0-6,4.7-10.8,10.7-10.9
	C701.2,629.4,706,634.1,706,640.1z"/>
<path class="st0" d="M639.4,449.4c0.2-5.8,5.1-10.2,10.9-9.9c5.7,0.3,10.1,5.2,9.8,11c-0.3,5.5-5,9.8-10.6,9.7
	C643.6,460.1,639.1,455.2,639.4,449.4z"/>
<path class="st0" d="M682.9,544.8c0.1,5.8-4.5,10.5-10.3,10.5c-5.8,0-10.4-4.6-10.4-10.4c0-5.6,4.5-10.1,10-10.3
	C677.9,534.5,682.7,539,682.9,544.8z"/>
<path class="st0" d="M1418.3,195.5c5.4,0,10.2,4.8,10.1,10.3c0,5.4-4.8,10.2-10.3,10.1c-5.4,0-10.2-4.8-10.1-10.3
	C1408.1,200.2,1412.9,195.5,1418.3,195.5z"/>
<path class="st0" d="M785.5,555.5c-0.1-5.5,4.7-10.3,10.2-10.2c5.3,0.1,9.9,4.7,10,9.9c0.1,5.5-4.8,10.3-10.2,10.2
	C790.2,565.4,785.6,560.8,785.5,555.5z"/>
<path class="st0" d="M170.6,344.7c-0.3,5.5-5.3,10.1-10.7,9.7c-5.3-0.4-9.7-5.2-9.4-10.4c0.3-5.5,5.3-10.1,10.7-9.7
	C166.5,334.6,170.8,339.5,170.6,344.7z"/>
<path class="st0" d="M626,1.1c5.5,0,10.2,5,10,10.4c-0.2,5.3-4.9,9.8-10.1,9.8c-5.5,0-10.2-5-10-10.4C616.1,5.6,620.8,1.1,626,1.1z"
	/>
<path class="st0" d="M506.7,61.8c0.1,5.5-4.8,10.3-10.2,10.2c-5.3-0.1-9.9-4.7-10-9.9c-0.1-5.5,4.7-10.3,10.2-10.2
	C502.1,51.9,506.6,56.5,506.7,61.8z"/>
<path class="st0" d="M434.6,46.6c5.5,0,10.3,4.9,10.1,10.3c-0.2,5.3-4.8,9.8-10.1,9.8c-5.5,0-10.2-4.9-10.1-10.3
	C424.7,51.2,429.3,46.6,434.6,46.6z"/>
<path class="st0" d="M126.6,362.3c5.4,0.1,9.8,4.7,9.7,10c-0.1,5.5-4.9,10.1-10.4,9.8c-5.4-0.3-9.7-5-9.4-10.3
	C116.7,366.5,121.3,362.2,126.6,362.3z"/>
<path class="st0" d="M198.4,378.9c-0.2,5.4-4.9,9.7-10.2,9.5c-5.6-0.2-10-5.1-9.6-10.6c0.4-5.4,5.1-9.6,10.4-9.3
	C194.3,368.9,198.6,373.5,198.4,378.9z"/>
<path class="st0" d="M754.8,427.1c0,5.3-4.5,9.8-9.9,9.9c-5.5,0-10.2-4.7-10-10.2c0.2-5.3,4.8-9.7,10.1-9.6
	C750.4,417.3,754.9,421.8,754.8,427.1z"/>
<path class="st0" d="M1102.1,20.5c0,5.5-4.2,9.8-9.7,9.8c-5.3,0-9.5-4-9.7-9.4c-0.2-5.5,4-9.9,9.5-10
	C1097.7,10.7,1102.1,14.9,1102.1,20.5z"/>
<path class="st0" d="M738,612.5c-0.1,5.5-4.5,9.7-10,9.5c-5.5-0.2-9.6-4.6-9.4-10.2c0.2-5.3,4.4-9.3,9.8-9.2
	C734,602.6,738.2,606.9,738,612.5z"/>
<path class="st0" d="M852.5,612.9c5.5,0,9.7,4.3,9.7,9.9c-0.1,5.5-4.5,9.7-10,9.5c-5.3-0.2-9.4-4.3-9.4-9.6
	C842.7,617.1,847,612.9,852.5,612.9z"/>
<path class="st0" d="M800.1,617.2c0.1,5.5-4,9.9-9.6,10c-5.5,0.1-9.8-4.2-9.8-9.7c0-5.3,4-9.5,9.3-9.7
	C795.6,607.5,800,611.6,800.1,617.2z"/>
<path class="st0" d="M108.1,338.9c0.1,5.5-4,9.9-9.6,10c-5.5,0.1-9.8-4.2-9.8-9.7c0-5.3,4-9.5,9.3-9.7
	C103.6,329.2,108,333.4,108.1,338.9z"/>
<path class="st0" d="M762.5,574.6c5.5,0,9.7,4.3,9.6,9.9c-0.1,5.5-4.5,9.7-10,9.5c-5.3-0.2-9.3-4.3-9.4-9.6
	C752.7,578.9,757,574.6,762.5,574.6z"/>
<path class="st0" d="M710.1,578.3c-0.1,5.5-4.5,9.7-10.1,9.5c-5.5-0.2-9.6-4.6-9.3-10.2c0.2-5.3,4.4-9.3,9.8-9.2
	C706.1,568.5,710.2,572.8,710.1,578.3z"/>
<path class="st0" d="M1039.9,15.2c0.1,5.6-4.1,9.8-9.6,9.7c-5.4,0-9.4-4-9.5-9.4c-0.1-5.6,4.1-9.8,9.6-9.7
	C1035.8,5.8,1039.8,9.8,1039.9,15.2z"/>
<path class="st0" d="M914.4,638.2c-5.4,0-9.4-4.2-9.3-9.5c0-5.4,4.2-9.4,9.5-9.3c5.4,0,9.4,4.2,9.3,9.5
	C923.9,634.2,919.8,638.3,914.4,638.2z"/>
<path class="st0" d="M1422.5,266.6c0.1,5.4-3.9,9.5-9.3,9.6c-5.4,0.1-9.5-3.9-9.6-9.3c-0.1-5.4,3.9-9.5,9.3-9.6
	C1418.3,257.2,1422.4,261.3,1422.5,266.6z"/>
<path class="st0" d="M232,349.5c0,5.4-4.1,9.4-9.5,9.4c-5.4,0-9.4-4.1-9.4-9.5c0-5.4,4.1-9.4,9.5-9.4C228,340.1,232,344.1,232,349.5
	z"/>
<path class="st0" d="M0.2,299.6c0-6.2,2.7-9.2,8.3-9.2c5.4,0,9.4,4.1,9.4,9.4s-4,9.4-9.4,9.4C2.8,309.3,0.2,306.2,0.2,299.6z"/>
<path class="st0" d="M682.8,411.6c5,0,9.2,4.1,9.3,9.1c0.1,5.2-4.3,9.6-9.5,9.4c-5-0.1-9.1-4.4-9-9.4
	C673.6,415.7,677.8,411.6,682.8,411.6z"/>
<path class="st0" d="M615.6,468.6c4.9,0,9.2,4.2,9.2,9.2c0,4.9-4.2,9.2-9.2,9.2c-4.9,0-9.2-4.2-9.2-9.2
	C606.4,472.9,610.6,468.6,615.6,468.6z"/>
<path class="st0" d="M839,527.3c0,5-4.1,9.2-9.1,9.4c-5.2,0.1-9.6-4.2-9.5-9.5c0.1-5,4.3-9.1,9.3-9.1
	C834.8,518.2,838.9,522.3,839,527.3z"/>
<path class="st0" d="M353.9,17.6c-0.1,5.2-4.3,9.3-9.6,9.2c-5.2-0.1-9.3-4.5-9.1-9.7c0.2-5,4.3-9,9.4-9
	C349.9,8.1,354,12.3,353.9,17.6z"/>
<path class="st0" d="M381.9,51.5c0,5.3-4.2,9.4-9.4,9.4c-5.3,0-9.4-4.3-9.3-9.6c0.1-5,4.1-9.1,9.2-9.1
	C377.6,42.1,381.9,46.3,381.9,51.5z"/>
<path class="st0" d="M558.9,77.4c-5,0.1-9.3-4-9.5-9c-0.2-5.2,4.1-9.6,9.4-9.6c5,0,9.2,4.2,9.2,9.2C568,73.1,563.9,77.3,558.9,77.4z
	"/>
<path class="st0" d="M642.5,635c0,5-4.1,9.2-9.1,9.3c-5.2,0.1-9.6-4.3-9.4-9.5c0.1-5,4.4-9.1,9.4-9C638.3,625.8,642.4,630,642.5,635
	z"/>
<path class="st0" d="M1125.3,2c-5.2-0.1-9.3-4.4-9.2-9.7c0.2-5.2,4.5-9.3,9.8-9c5,0.2,8.9,4.3,8.9,9.4C1134.8-2,1130.6,2.1,1125.3,2
	z"/>
<path class="st0" d="M23,238c-0.1,5.2-4.4,9.3-9.7,9.1c-5.2-0.2-9.2-4.5-9-9.8c0.2-5,4.4-8.9,9.4-8.9C19,228.5,23.1,232.7,23,238z"
	/>
<path class="st0" d="M824.7,598.8c-5,0.1-9.3-4-9.5-9c-0.2-5.2,4.2-9.6,9.4-9.6c5,0,9.2,4.2,9.2,9.2
	C833.8,594.4,829.7,598.7,824.7,598.8z"/>
<path class="st0" d="M65.1,357.8c5-0.1,9.3,3.9,9.5,9c0.2,5.2-4.1,9.6-9.3,9.6c-5,0-9.2-4.2-9.2-9.2C56,362.1,60.1,357.9,65.1,357.8
	z"/>
<path class="st0" d="M45.7,333.8c0.1,5-3.9,9.3-8.9,9.5c-5.2,0.2-9.6-4.1-9.6-9.3c0-5,4.2-9.2,9.2-9.2
	C41.3,324.6,45.5,328.7,45.7,333.8z"/>
<path class="st0" d="M977.4,10.3c-0.1,4.9-4.6,9.2-9.5,9c-4.7-0.2-8.8-4.5-8.7-9.2c0.1-4.9,4.6-9.2,9.5-9
	C973.4,1.4,977.4,5.6,977.4,10.3z"/>
<path class="st0" d="M894.5,595c-0.2,4.8-4.5,8.8-9.3,8.5c-4.8-0.2-8.7-4.5-8.5-9.3c0.2-4.8,4.5-8.8,9.3-8.5
	C890.8,586,894.7,590.3,894.5,595z"/>
<path class="st0" d="M1394,233.8c-0.1,4.8-4.2,8.9-9,8.8c-4.8-0.1-8.9-4.2-8.8-9c0.1-4.8,4.2-8.9,9-8.8
	C1390.1,224.8,1394.1,229,1394,233.8z"/>
<path class="st0" d="M667.4,615.9c-4.8,0.1-9-4-9-8.8c-0.1-4.8,4-9,8.8-9c4.8-0.1,9,4,9,8.8C676.3,611.7,672.3,615.9,667.4,615.9z"
	/>
<path class="st0" d="M79.4,305.1c-0.1,4.8-4.2,8.9-9,8.8c-4.8-0.1-8.9-4.2-8.8-9c0.1-4.8,4.2-8.9,9-8.8
	C75.5,296.2,79.5,300.3,79.4,305.1z"/>
<path class="st0" d="M1439.9,20c0,0.7,0.1,1.4,0,2c-0.5,2.2-0.9,6.1-1.7,6.1c-3,0.3-6.7,0.3-9.2-1.2c-5.4-3.3-5.3-12.1,0.3-15.2
	c2.4-1.4,5.9-1.5,8.8-1c0.9,0.2,1.4,3.9,1.8,6.1C1440.1,17.8,1439.9,18.9,1439.9,20z"/>
<path class="st0" d="M202.3,316.1c0.1,5-3.7,8.9-8.7,8.9c-4.8,0-8.5-3.7-8.7-8.4c-0.1-5,3.7-8.9,8.7-8.9
	C198.4,307.7,202.1,311.4,202.3,316.1z"/>
<path class="st0" d="M132.4,319.9c-5-0.1-8.7-4.1-8.6-9c0.2-4.7,4-8.4,8.8-8.3c5,0.1,8.8,4.1,8.6,9
	C141,316.3,137.2,319.9,132.4,319.9z"/>
<path class="st0" d="M51.2,271.9c0,5-4,8.8-9,8.6c-4.7-0.1-8.4-3.9-8.4-8.7c0-5,4-8.8,9-8.6C47.6,263.4,51.3,267.2,51.2,271.9z"/>
<path class="st0" d="M271.4,602.9c0,4.8-3.6,8.4-8.4,8.5c-5,0.1-8.8-3.7-8.6-8.8c0.1-4.8,3.8-8.3,8.6-8.2
	C267.8,594.5,271.4,598.1,271.4,602.9z"/>
<path class="st0" d="M1432.9,143.9c-0.1,4.8-3.8,8.3-8.6,8.3c-5,0-8.6-4-8.4-9c0.2-4.7,4-8.2,8.8-8
	C1429.6,135.3,1433,139,1432.9,143.9z"/>
<path class="st0" d="M155.1,397.9c4.8-0.1,8.6,3.4,8.7,8.2c0.2,5-3.6,8.9-8.6,8.8c-4.8,0-8.4-3.6-8.5-8.4
	C146.8,401.6,150.3,398,155.1,397.9z"/>
<path class="st0" d="M857.8,570.1c-4.8,0.1-8.5-3.4-8.7-8.2c-0.2-5,3.6-8.9,8.6-8.8c4.8,0,8.4,3.6,8.5,8.4
	C866.2,566.3,862.6,570,857.8,570.1z"/>
<path class="st0" d="M323.8,599.6c4.8,0,8.5,3.5,8.6,8.3c0.1,4.8-3.4,8.6-8.2,8.7c-5,0.2-8.9-3.5-8.9-8.5
	C315.4,603.2,319,599.6,323.8,599.6z"/>
<path class="st0" d="M385.7,605c4.7-0.1,8.5,3.6,8.5,8.3c0,4.5-3.5,8.1-8.1,8.3c-4.7,0.1-8.5-3.6-8.5-8.3
	C377.7,608.7,381.2,605.1,385.7,605z"/>
<path class="st0" d="M1004.4,44.4c0,4.4-3.9,8.2-8.3,8.2c-4.4,0-8.2-3.9-8.2-8.3c0-4.4,3.8-8.2,8.3-8.2
	C1000.7,36.2,1004.5,40,1004.4,44.4z"/>
<path class="st0" d="M843.2,465.5c-0.1,4.7-4,8.4-8.7,8.1c-4.5-0.2-8-3.9-7.9-8.5c0.1-4.7,4-8.4,8.7-8.1
	C839.8,457.3,843.2,461,843.2,465.5z"/>
<path class="st0" d="M311.6,38.1c4.7,0.1,8.4,3.9,8.2,8.6c-0.2,4.5-3.9,8-8.4,7.9c-4.7,0-8.4-3.9-8.2-8.6
	C303.4,41.5,307.1,38.1,311.6,38.1z"/>
<path class="st0" d="M1066.7,49.4c0,4.8-3.6,8.5-8.5,8.4c-4.8,0-8.4-3.8-8.3-8.6c0.1-4.6,3.6-8.1,8.2-8.2
	C1062.9,41,1066.6,44.6,1066.7,49.4z"/>
<path class="st0" d="M815.2,432.1c0.1,4.7-3.6,8.5-8.4,8.5c-4.5,0-8.1-3.6-8.2-8.1c-0.1-4.7,3.6-8.5,8.4-8.5
	C811.5,424,815.1,427.5,815.2,432.1z"/>
<path class="st0" d="M93,392.8c4.8-0.1,8.6,3.5,8.6,8.3c0,4.8-3.6,8.5-8.4,8.5c-4.6,0-8.2-3.5-8.3-8C84.7,396.7,88.3,392.9,93,392.8
	z"/>
<path class="st0" d="M976.2,642.3c-4.5-0.2-8-3.9-7.9-8.4c0.1-4.7,4-8.4,8.7-8.1c4.7,0.2,8.2,4.2,7.9,8.9
	C984.5,639.1,980.7,642.5,976.2,642.3z"/>
<path class="st0" d="M339.4,71.2c4.7,0,8.4,3.8,8.3,8.5c-0.1,4.5-3.7,8-8.3,8.1c-4.7,0-8.4-3.8-8.3-8.5
	C331.3,74.7,334.9,71.2,339.4,71.2z"/>
<path class="st0" d="M1429.6,73.3c4.7,0,8.4,3.8,8.3,8.5c-0.1,4.5-3.7,8-8.3,8.1c-4.7,0-8.4-3.8-8.3-8.5
	C1421.4,76.8,1425.1,73.3,1429.6,73.3z"/>
<path class="st0" d="M409.7,84.5c0.1,4.4-3.6,8.3-8,8.4c-4.4,0.1-8.3-3.6-8.4-8c-0.1-4.4,3.6-8.3,8-8.4
	C405.7,76.4,409.6,80.1,409.7,84.5z"/>
<path class="st0" d="M1390.4,163.4c4.4,0.1,8.1,4,8,8.4c-0.1,4.4-4,8.1-8.4,8c-4.4-0.1-8.1-4-8-8.4
	C1382.2,167,1386.1,163.3,1390.4,163.4z"/>
<path class="st0" d="M250.5,375.3c4.8,0,8.5,3.7,8.4,8.5c-0.1,4.8-3.8,8.4-8.6,8.3c-4.6-0.1-8.1-3.6-8.1-8.2
	C242,378.9,245.6,375.3,250.5,375.3z"/>
<path class="st0" d="M646.5,572.9c0,4.4-3.7,8.2-8.2,8.3c-4.4,0-8.2-3.7-8.3-8.2c0-4.4,3.7-8.2,8.2-8.3
	C642.7,564.7,646.5,568.5,646.5,572.9z"/>
<path class="st0" d="M209.2,596.7c0,4.8-3.6,8.5-8.5,8.4c-4.8,0-8.4-3.8-8.3-8.6c0.1-4.6,3.6-8.1,8.2-8.2
	C205.5,588.2,209.2,591.9,209.2,596.7z"/>
<path class="st0" d="M216.6,419.6c-4.3,0.1-8.3-3.8-8.3-8.1c0-4.2,3.7-7.9,7.9-8.1c4.3-0.1,8.3,3.8,8.3,8.1
	C224.4,415.7,220.8,419.5,216.6,419.6z"/>
<path class="st0" d="M947.5,591.9c4.2-0.1,8,3.6,8.1,7.8c0.1,4.2-3.6,8-7.8,8.1c-4.2,0.1-8-3.6-8-7.8
	C939.6,595.7,943.2,592,947.5,591.9z"/>
<path class="st0" d="M914.2,4.9c0.1,4.2-3.6,8-7.8,8c-4.2,0.1-8-3.6-8.1-7.8c-0.1-4.2,3.6-8,7.8-8.1C910.3-3,914.1,0.7,914.2,4.9z"
	/>
<path class="st0" d="M1161.3,26.9c-0.1,4.2-3.8,7.9-8.1,7.8c-4.2-0.1-7.9-3.8-7.8-8.1c0.1-4.2,3.8-7.9,8-7.8
	C1157.8,18.9,1161.4,22.7,1161.3,26.9z"/>
<path class="st0" d="M285,74.5c-0.1,4.4-3.7,7.7-8.1,7.4c-4.2-0.2-7.3-3.6-7.2-7.9c0.1-4.4,3.7-7.7,8.1-7.4
	C282,66.9,285.1,70.3,285,74.5z"/>
<path class="st0" d="M620.7,81c-4.4,0-7.8-3.5-7.6-8c0.2-4.2,3.5-7.4,7.7-7.4c4.4,0,7.8,3.5,7.6,8C628.3,77.8,625,81,620.7,81z"/>
<path class="st0" d="M1401.5,40.8c4.2-0.1,7.6,3,7.9,7.2c0.2,4.4-3,8-7.4,8.1c-4.4,0.1-7.9-3.3-7.9-7.7
	C1394.1,44.2,1397.2,40.9,1401.5,40.8z"/>
<path class="st0" d="M618,540.1c-0.1,4.4-3.7,7.7-8.2,7.4c-4.2-0.3-7.3-3.7-7.2-7.9c0.1-4.4,3.7-7.7,8.2-7.4
	C615.1,532.5,618.2,535.8,618,540.1z"/>
<path class="st0" d="M935.2,45.8c-4.4,0-7.8-3.5-7.7-7.9c0.1-4.2,3.4-7.4,7.7-7.4c4.4,0,7.8,3.5,7.7,7.9
	C942.7,42.6,939.4,45.8,935.2,45.8z"/>
<path class="st0" d="M661.3,45.8c-0.2,4.3-3.6,7.3-7.9,7c-4.3-0.2-7.3-3.6-7.1-7.9c0.2-4.3,3.6-7.3,7.9-7
	C658.5,38.1,661.5,41.5,661.3,45.8z"/>
<path class="st0" d="M55.2,210c-0.1,4.3-3.2,7.4-7.6,7.4c-4.3,0-7.4-3.2-7.4-7.6c0-4.3,3.2-7.4,7.6-7.4
	C52.1,202.4,55.2,205.6,55.2,210z"/>
<path class="st0" d="M469.8,90.7c0.1,4.1-2.9,7.3-6.9,7.5c-4.3,0.2-7.7-2.9-7.8-7.2c-0.1-4.3,3.2-7.5,7.4-7.5
	C466.6,83.6,469.8,86.7,469.8,90.7z"/>
<path class="st0" d="M621.8,423c-4.3,0-7.5-3.3-7.3-7.6c0.1-4,3.3-7.1,7.3-7.1c4.3,0,7.5,3.3,7.3,7.6C629,420,625.9,423,621.8,423z"
	/>
<path class="st0" d="M182.4,89.8c4.2,0.1,7.4,3.6,7.1,7.8c-0.2,4-3.5,7-7.6,6.9c-4.2-0.1-7.4-3.6-7.1-7.8
	C175.1,92.6,178.4,89.6,182.4,89.8z"/>
<path class="st0" d="M38.6,395.4c-0.2,4.3-3.6,7.3-7.9,7c-4.3-0.2-7.3-3.6-7.1-7.9c0.2-4.2,3.6-7.3,7.9-7
	C35.9,387.8,38.8,391.1,38.6,395.4z"/>
<path class="st0" d="M244.2,109.7c-4.3,0-7.5-3.2-7.5-7.5c0-4.3,3.2-7.5,7.5-7.4c4.3,0,7.5,3.2,7.5,7.5
	C251.7,106.6,248.6,109.7,244.2,109.7z"/>
<path class="st0" d="M305.4,100c4.3,0,7.4,3.2,7.4,7.6c0,4.3-3.2,7.4-7.6,7.4c-4.3,0-7.4-3.2-7.4-7.6C297.9,103,301.1,100,305.4,100
	z"/>
<path class="st0" d="M927.1,566.6c0.1,4.3-3,7.5-7.3,7.6c-4.3,0.1-7.5-3-7.6-7.3c-0.1-4.3,3-7.5,7.3-7.6
	C923.8,559.2,927,562.3,927.1,566.6z"/>
<path class="st0" d="M283.7,348.4c4.2,0.1,7.4,3.5,7.2,7.7c-0.2,4-3.4,7-7.5,6.9c-4.2-0.1-7.4-3.5-7.2-7.7
	C276.5,351.3,279.7,348.3,283.7,348.4z"/>
<path class="st0" d="M1120.5,62.2c-4.3,0.1-7.6-3-7.7-7.3s2.9-7.6,7.2-7.7c4.3-0.1,7.6,3,7.7,7.3
	C1127.9,58.8,1124.8,62.1,1120.5,62.2z"/>
<path class="st0" d="M862.9,507c-4.3,0-7.5-3.1-7.5-7.4c0-4.3,3.1-7.5,7.4-7.5c4.3,0,7.5,3.1,7.5,7.4
	C870.3,503.8,867.2,506.9,862.9,507z"/>
<path class="st0" d="M209.9,122.9c4.3-0.1,7.6,3.1,7.6,7.3c0,4.1-3.1,7.2-7.1,7.3c-4.3,0.1-7.6-3.1-7.6-7.3
	C202.8,126.2,205.9,123,209.9,122.9z"/>
<path class="st0" d="M365.4,580.2c0,4.2-3.4,7.4-7.7,7.2c-4-0.2-7-3.4-7-7.4c0.1-4.2,3.4-7.4,7.7-7.2
	C362.4,573,365.4,576.2,365.4,580.2z"/>
<path class="st0" d="M255.6,329c-4.3,0-7.4-3.2-7.4-7.5c0-4.3,3.2-7.4,7.5-7.4c4.3,0,7.4,3.2,7.4,7.5
	C263.1,325.9,259.9,329.1,255.6,329z"/>
<path class="st0" d="M290,12.5c-0.1,4.3-3.3,7.4-7.7,7.3c-4.3-0.1-7.4-3.3-7.3-7.7c0.1-4.3,3.3-7.4,7.7-7.3
	C287,4.9,290.1,8.1,290,12.5z"/>
<path class="st0" d="M1419.3,540.6c4.3,0,7.5,3.2,7.4,7.5c0,4.3-3.1,7.5-7.4,7.5s-7.5-3.2-7.4-7.5
	C1411.8,543.8,1415,540.6,1419.3,540.6z"/>
<path class="st0" d="M1357.2,206.7c-3.9,0-7.3-3.2-7.3-7.2c0-3.9,3.2-7.3,7.2-7.3c3.9,0,7.3,3.2,7.3,7.2
	C1364.4,203.4,1361.2,206.7,1357.2,206.7z"/>
<path class="st0" d="M542.1,246.1c3.9,0,7.2,3.3,7.3,7.2c0,3.9-3.3,7.2-7.2,7.3s-7.3-3.3-7.3-7.2
	C534.9,249.4,538.2,246.1,542.1,246.1z"/>
<path class="st0" d="M448.2,625.7c-3.9,0.1-7.3-3.1-7.4-7c-0.1-3.9,3.1-7.3,7-7.4c3.9-0.1,7.3,3.1,7.4,7
	C455.4,622.2,452.2,625.6,448.2,625.7z"/>
<path class="st0" d="M148,117.8c3.9-0.1,7.3,3.2,7.3,7.1c0.1,3.9-3.2,7.3-7.1,7.3c-3.9,0.1-7.3-3.2-7.3-7.1
	C140.8,121.2,144,117.8,148,117.8z"/>
<path class="st0" d="M571.2,622.6c3.9,0.1,7.2,3.4,7.1,7.3c-0.1,3.9-3.4,7.2-7.3,7.1c-3.9-0.1-7.2-3.4-7.1-7.3
	C564,625.8,567.3,622.5,571.2,622.6z"/>
<path class="st0" d="M303.2,573.9c0,3.9-3.3,7.3-7.2,7.3c-3.9,0-7.3-3.3-7.3-7.2c0-3.9,3.3-7.2,7.2-7.3
	C299.9,566.7,303.2,570,303.2,573.9z"/>
<path class="st0" d="M233.9,576c-3.9,0-7.2-3.3-7.2-7.3c0-3.9,3.3-7.2,7.3-7.2c3.9,0,7.2,3.3,7.2,7.3
	C241.1,572.8,237.8,576,233.9,576z"/>
<path class="st0" d="M367.6,106.4c3.9,0.1,7.1,3.5,7,7.5c-0.1,3.9-3.5,7.1-7.5,7c-3.9-0.1-7.1-3.5-7-7.5
	C360.3,109.4,363.7,106.3,367.6,106.4z"/>
<path class="st0" d="M1402.7,109.6c-0.1,3.9-3.4,7.2-7.3,7.1s-7.2-3.4-7.1-7.3c0.1-3.9,3.4-7.2,7.3-7.1
	C1399.5,102.3,1402.8,105.7,1402.7,109.6z"/>
<path class="st0" d="M0.4,369.9c0-5.4,0-10.4,0-15.9c3.9-1.3,7.6-0.7,9.4,2.8c1.3,2.5,1.6,6.3,0.6,9C9.1,369.9,5.1,370.8,0.4,369.9z
	"/>
<path class="st0" d="M127.1,91.8c0.1,3.7-3.1,7-6.8,7.1c-3.7,0.1-7-3.1-7.1-6.8c-0.1-3.7,3.1-7,6.8-7.1
	C123.7,84.9,127,88.1,127.1,91.8z"/>
<path class="st0" d="M75.8,250.9c-3.7,0.1-7-3.1-7.1-6.8c-0.1-3.7,3.1-7,6.8-7.1c3.7-0.1,7,3.1,7.1,6.8
	C82.7,247.5,79.5,250.8,75.8,250.9z"/>
<path class="st0" d="M583.2,225.5c-0.1,3.7-3.4,6.9-7.1,6.8c-3.7-0.1-6.9-3.4-6.8-7.1c0.1-3.7,3.4-6.9,7.1-6.8
	C580.1,218.5,583.3,221.8,583.2,225.5z"/>
<path class="st0" d="M514.1,212.2c3.7-0.1,7,3.1,7.1,6.8c0.1,3.7-3.1,7-6.8,7.1c-3.7,0.1-7-3.1-7.1-6.8
	C507.2,215.6,510.4,212.3,514.1,212.2z"/>
<path class="st0" d="M1351.2,268.7c-3.8,0.1-7.3-3.3-7.3-7.1c0-3.8,3.4-7.4,7.2-7.1c4.1,0.3,6.6,2.7,7,6.8
	C1358.4,265.1,1355,268.6,1351.2,268.7z"/>
<path class="st0" d="M215.5,76.3c-3.8,0.1-7.3-3.2-7.3-7c-0.1-3.8,3.3-7.4,7.2-7.2c4.1,0.2,6.6,2.7,7.1,6.7
	C222.8,72.6,219.3,76.2,215.5,76.3z"/>
<path class="st0" d="M110.7,277.2c0,3.8-3.5,7.2-7.3,7.1c-3.8-0.1-7.3-3.7-6.9-7.5c0.4-4.1,2.9-6.5,7-6.8
	C107.4,269.8,110.8,273.4,110.7,277.2z"/>
<path class="st0" d="M516,281.3c-0.1,3.7-3.4,6.9-7.1,6.8c-3.7-0.1-6.9-3.4-6.8-7.1c0.1-3.7,3.4-6.9,7.1-6.8
	C512.9,274.4,516.1,277.6,516,281.3z"/>
<path class="st0" d="M1379.7,14.4c-0.1,3.7-3.4,6.9-7.1,6.8c-3.7-0.1-6.9-3.4-6.8-7.1c0.1-3.7,3.4-6.9,7.1-6.8
	C1376.6,7.4,1379.8,10.8,1379.7,14.4z"/>
<path class="st0" d="M570.2,293.3c-3.7,0.1-7-3.1-7.1-6.8c-0.1-3.7,3.1-7,6.8-7.1c3.7-0.1,7,3.1,7.1,6.8
	C577.1,290,573.9,293.3,570.2,293.3z"/>
<path class="st0" d="M173,570.6c-3.7,0.1-7-3.1-7.1-6.9c-0.1-3.7,3.1-7,6.8-7.1c3.7-0.1,7,3.1,7.1,6.9
	C179.9,567.2,176.7,570.5,173,570.6z"/>
<path class="st0" d="M898.9,532.7c-0.1,3.8-3.6,7.2-7.4,7c-3.8-0.2-7.3-3.8-6.8-7.5c0.5-4.1,3-6.5,7.1-6.7
	C895.6,525.3,899,528.9,898.9,532.7z"/>
<path class="st0" d="M279.3,136.2c0.1,3.8-3.2,7.3-7,7.4c-3.8,0.1-7.4-3.4-7.2-7.2c0.2-4.1,2.7-6.6,6.8-7.1
	C275.6,128.9,279.2,132.4,279.3,136.2z"/>
<path class="st0" d="M249.6,33.1c3.8,0.1,7.1,3.6,7,7.4c-0.2,3.8-3.8,7.3-7.5,6.8c-4.1-0.5-6.5-3-6.7-7.1
	C242.2,36.4,245.8,33,249.6,33.1z"/>
<path class="st0" d="M1380.3,288.8c3.7,0.2,6.8,3.7,6.6,7.3c-0.2,3.7-3.7,6.8-7.4,6.5c-3.7-0.2-6.8-3.7-6.6-7.3
	C1373.2,291.6,1376.7,288.5,1380.3,288.8z"/>
<path class="st0" d="M605.1,594.9c3.7-0.1,7,3.1,7.1,6.8c0.1,3.7-3.1,7-6.8,7.1c-3.7,0.1-7-3.1-7.1-6.8
	C598.2,598.3,601.4,595,605.1,594.9z"/>
<path class="st0" d="M587.6,436.5c3.8-0.1,7.2,3.3,7.2,7.2c0,3.8-3.5,7.3-7.3,7.1c-4.1-0.3-6.5-2.8-6.9-6.9
	C580.3,440.1,583.7,436.6,587.6,436.5z"/>
<path class="st0" d="M26.9,177.1c-0.2,3.8-3.9,7-7.7,6.7c-3.8-0.3-7.1-4-6.5-7.8c0.6-4.1,3.2-6.4,7.3-6.4
	C23.9,169.6,27.2,173.4,26.9,177.1z"/>
<path class="st0" d="M121.7,152.9c0.1,3.8-3,7-6.8,6.8c-4-0.2-6.3-2.6-6.5-6.6c-0.2-3.8,3-6.9,6.8-6.8
	C118.8,146.3,121.6,149.2,121.7,152.9z"/>
<path class="st0" d="M183.7,159.4c-0.1,3.8-3.3,6.8-7.2,6.4c-4-0.4-6.1-2.9-6.2-6.9c0-3.8,3.3-6.7,7.1-6.5
	C181.1,152.8,183.8,155.8,183.7,159.4z"/>
<path class="st0" d="M582.5,512.4c-3.8,0-7-3.1-6.6-7c0.3-4,2.7-6.2,6.6-6.4c3.8-0.1,6.8,3.1,6.7,6.9
	C589,509.6,586.1,512.4,582.5,512.4z"/>
<path class="st0" d="M604.6,265.2c-4,0.1-7.2-2.9-7-6.8c0.2-4,2.5-6.3,6.4-6.6c3.8-0.3,7,2.9,6.9,6.7
	C610.7,262.5,608.4,264.7,604.6,265.2z"/>
<path class="st0" d="M879.8,33.1c-0.1,3.8-3.3,6.9-7.1,6.5c-4-0.4-6.2-2.8-6.2-6.8c-0.1-3.8,3.2-6.8,7.1-6.6
	C877.1,26.5,879.9,29.5,879.8,33.1z"/>
<path class="st0" d="M536.9,308.7c3.9,0.3,6.3,2.3,6.8,6.3c0.4,3.8-2.7,7-6.5,7.1c-3.8,0.1-7-3-6.8-6.8
	C530.5,311.3,532.8,309.1,536.9,308.7z"/>
<path class="st0" d="M182.5,445.7c-3.1-0.4-5.4-2.3-5.5-6.2c-0.1-3.7,2.9-6.6,6.6-6.3c3.9,0.3,5.9,2.6,5.9,6.4
	C189.5,443.2,186.7,445.8,182.5,445.7z"/>
<path class="st0" d="M503.1,349.6c-3.9-0.3-6.2-2.1-6.5-6c-0.3-3.7,2.6-6.7,6.3-6.6c3.9,0.2,6.1,2.3,6.2,6.2
	C509.1,347.1,506.8,349.1,503.1,349.6z"/>
<path class="st0" d="M80.8,175.6c3.8,0.4,6.1,2.3,6.3,6.1c0.2,3.7-2.8,6.7-6.4,6.4c-3.9-0.2-6-2.5-6-6.3C74.6,178,77,176,80.8,175.6
	z"/>
<path class="st0" d="M121.2,440.7c-3.8-0.4-6.1-2.3-6.3-6.2c-0.2-3.7,2.8-6.7,6.5-6.4c3.9,0.3,6,2.5,6,6.3
	C127.4,438.3,125,440.3,121.2,440.7z"/>
<path class="st0" d="M334.5,148c-3.8,0.1-6.6-2.6-6.7-6.3c0-3.8,2.7-6.6,6.5-6.5c3.9,0.1,6.1,2.2,6.3,6.1
	C341,145,338.2,147.9,334.5,148z"/>
<path class="st0" d="M564.7,342.1c3.8,0.3,6.2,2.2,6.4,6.1c0.3,3.7-2.7,6.7-6.4,6.5c-3.9-0.2-6.1-2.4-6.1-6.2
	C558.6,344.6,561,342.6,564.7,342.1z"/>
<path class="st0" d="M1181.2-2.4c0.1-3.7,3-6.4,6.8-6.2c3.7,0.2,6.4,3.2,6,6.9c-0.4,3.8-2.7,5.9-6.5,5.9
	C1183.8,4.2,1181.1,1.3,1181.2-2.4z"/>
<path class="st0" d="M1363.2,132.2c3.1,0.4,5.3,2.4,5.4,6.3c0.1,3.7-3,6.6-6.7,6.2c-3.9-0.4-5.9-2.7-5.8-6.6
	C1356.2,134.7,1359,132.1,1363.2,132.2z"/>
<path class="st0" d="M609.7,202.7c-3.9-0.2-6.2-2.1-6.5-6c-0.3-3.7,2.6-6.8,6.3-6.6c3.9,0.1,6.1,2.3,6.2,6.1
	C615.7,200.2,613.4,202.2,609.7,202.7z"/>
<path class="st0" d="M87.1,126.3c-3.8,0-6.5-2.8-6.5-6.5c0-3.7,2.9-6.5,6.7-6.3c3.9,0.2,6,2.4,6.2,6.2
	C93.7,123.4,90.8,126.3,87.1,126.3z"/>
<path class="st0" d="M845.5-6.5c3.7,0.5,5.9,2.5,6,6.4c0.1,3.7-3,6.6-6.7,6.2c-3.9-0.4-5.9-2.7-5.8-6.6
	C839.2-4.4,841.6-6.2,845.5-6.5z"/>
<path class="st0" d="M165.7,288.7c-3.8,0-6.5-2.8-6.5-6.5c0-3.7,2.9-6.6,6.6-6.3c3.9,0.2,6,2.4,6.2,6.2
	C172.3,285.9,169.5,288.7,165.7,288.7z"/>
<path class="st0" d="M110.7,564.8c-3.7-0.5-6-2.4-6.1-6.3c-0.1-3.7,2.9-6.6,6.6-6.3c3.9,0.3,6,2.6,5.9,6.5
	C116.9,562.6,114.5,564.5,110.7,564.8z"/>
<path class="st0" d="M704.3,112.2c0.2-3.7,3.2-6.3,7-6c3.7,0.3,6.3,3.4,5.8,7.1c-0.5,3.9-2.9,5.8-6.7,5.7
	C706.8,118.9,704.1,115.9,704.3,112.2z"/>
<path class="st0" d="M154.2,69.4c-3.7-0.1-6.4-3-6.3-6.7c0.1-3.7,3.1-6.4,6.8-6.1c3.8,0.3,5.9,2.6,6,6.4
	C160.8,66.7,157.9,69.4,154.2,69.4z"/>
<path class="st0" d="M238.4,158c3.7,0.5,5.9,2.6,5.9,6.4c0,3.7-3.1,6.5-6.8,6.1c-3.9-0.4-5.9-2.8-5.7-6.6
	C232.1,160,234.5,158.2,238.4,158z"/>
<path class="st0" d="M717.2,399.4c-3.8,0.1-6.6-2.6-6.6-6.3c0-3.8,2.7-6.6,6.5-6.5c3.9,0.1,6,2.2,6.3,6.1
	C723.6,396.3,720.9,399.2,717.2,399.4z"/>
<path class="st0" d="M516.4,624.5c-0.3,3.8-2.2,6.2-6.1,6.5c-3.7,0.3-6.7-2.7-6.5-6.3c0.2-3.9,2.4-6.1,6.2-6.1
	C514,618.4,515.9,620.7,516.4,624.5z"/>
<path class="st0" d="M688.1,78.7c-0.5,3.7-2.5,5.9-6.4,6c-3.7,0.1-6.5-3-6.2-6.7c0.4-3.9,2.7-5.9,6.5-5.8
	C686,72.4,687.8,74.8,688.1,78.7z"/>
<path class="st0" d="M631.1,229.5c0.5-3.1,2.6-5.3,6.5-5.2c3.7,0.1,6.4,3.3,5.9,6.9c-0.5,3.8-2.9,5.7-6.8,5.6
	C633.3,236.6,630.8,233.6,631.1,229.5z"/>
<path class="st0" d="M426.5,585.1c0.1,3.8-2.6,6.6-6.3,6.7c-3.8,0-6.6-2.7-6.5-6.5c0.1-3.9,2.2-6.1,6.1-6.3
	C423.5,578.7,426.4,581.4,426.5,585.1z"/>
<path class="st0" d="M486.4,247.9c-0.3,3.8-2.1,6.2-6.1,6.4c-3.7,0.3-6.7-2.7-6.5-6.3c0.2-3.9,2.4-6.1,6.2-6.1
	C484,241.9,486,244.2,486.4,247.9z"/>
<path class="st0" d="M745.1,145.8c0,3.7-2.9,6.4-6.6,6.3c-3.7-0.1-6.5-3.1-6.2-6.8c0.3-3.9,2.5-5.9,6.4-6
	C742.4,139.2,745.1,142,745.1,145.8z"/>
<path class="st0" d="M518.1,95.6c0.2-3.7,3.2-6.3,7-6c3.7,0.3,6.3,3.4,5.8,7.1c-0.5,3.9-2.9,5.8-6.7,5.7
	C520.6,102.4,517.9,99.4,518.1,95.6z"/>
<path class="st0" d="M779.2,391.8c3.7,0.5,6,2.5,6,6.4c0.1,3.7-3,6.6-6.7,6.2c-3.9-0.4-6-2.7-5.8-6.6
	C772.9,393.9,775.4,392.1,779.2,391.8z"/>
<path class="st0" d="M650.4,169.7c-2.3,1.6-4.4,3.9-6.9,4.5c-3.1,0.8-6.3-3-5.9-6.2c0.4-3.5,2.8-6.1,6.1-5.4
	c2.5,0.5,4.5,3.1,6.7,4.7C650.4,168.2,650.4,169,650.4,169.7z"/>
<path class="st0" d="M558.5,417.4c-1.6-2.2-3.9-4.3-4.6-6.8c-0.8-3,2.9-6.4,6.1-6c3.5,0.4,6.1,2.7,5.5,6.1c-0.5,2.5-3,4.5-4.7,6.8
	C560.1,417.4,559.3,417.4,558.5,417.4z"/>
<path class="st0" d="M1085,89.5c-1.6-2.3-3.9-4.3-4.6-6.8c-0.8-3,2.9-6.4,6.1-6c3.5,0.4,6.2,2.7,5.5,6.1c-0.5,2.5-3,4.5-4.6,6.8
	C1086.6,89.5,1085.8,89.5,1085,89.5z"/>
<path class="st0" d="M1031.4,77.3c-0.4,3.8-2.3,6.3-6.2,6.3c-3.9,0-6.1-2.4-6.1-6.2c0-3.6,2.2-5.8,5.8-6
	C1028.8,71.2,1030.8,73.5,1031.4,77.3z"/>
<path class="st0" d="M1374.4,77.6c-2.2,1.6-4.3,3.9-6.8,4.6c-3.1,0.8-6.4-2.9-6-6.1c0.4-3.5,2.7-6.1,6.1-5.5
	c2.5,0.5,4.5,3.1,6.8,4.7C1374.4,76.1,1374.4,76.9,1374.4,77.6z"/>
<path class="st0" d="M588,94.4c1.5,2.3,3.8,4.4,4.4,7c0.7,3.1-3.1,6.3-6.3,5.8c-3.5-0.5-6.1-2.9-5.3-6.2c0.5-2.5,3.2-4.4,4.9-6.6
	C586.5,94.3,587.3,94.4,588,94.4z"/>
<path class="st0" d="M963.1,66c4,0.7,6.3,2.7,6.1,6.6c-0.2,3.8-2.7,6-6.5,5.7c-3.6-0.2-5.7-2.6-5.6-6.2
	C957.1,68.3,959.6,66.5,963.1,66z"/>
<path class="st0" d="M654.9,106.3c-0.4,3.8-2.4,6.2-6.3,6.2c-3.9-0.1-6.1-2.4-6-6.3c0.1-3.6,2.3-5.8,5.9-5.9
	C652.4,100.2,654.4,102.6,654.9,106.3z"/>
<path class="st0" d="M1329.3,228.3c-0.4,3.8-2.3,6.3-6.2,6.3s-6.2-2.3-6.2-6.2c0-3.6,2.2-5.8,5.8-6
	C1326.7,222.2,1328.7,224.5,1329.3,228.3z"/>
<path class="st0" d="M661.1,388c-0.7,3.7-2.7,6.1-6.6,5.8c-3.8-0.3-6-2.8-5.7-6.6c0.3-3.6,2.6-5.7,6.2-5.6
	C658.9,381.8,660.8,384.2,661.1,388z"/>
<path class="st0" d="M907.9,68.4c-2.3,1.5-4.4,3.9-6.9,4.5c-3.1,0.8-6.3-3-5.9-6.2c0.5-3.5,2.8-6.1,6.2-5.4c2.5,0.5,4.5,3.1,6.7,4.8
	C907.9,66.9,907.9,67.6,907.9,68.4z"/>
<path class="st0" d="M599.1,382.7c-0.6,3.8-2.6,6.1-6.5,6c-3.8-0.2-6-2.6-5.8-6.5c0.2-3.6,2.5-5.7,6.1-5.7
	C596.7,376.5,598.7,378.9,599.1,382.7z"/>
<path class="st0" d="M91,64.6c-1.6-2.3-3.9-4.3-4.6-6.9c-0.8-3.1,2.9-6.4,6.1-6c3.5,0.4,6.1,2.7,5.5,6.1c-0.5,2.5-3.1,4.5-4.7,6.8
	C92.6,64.6,91.8,64.6,91,64.6z"/>
<path class="st0" d="M538.1,376.1c-0.5,4-2.5,6.5-6.4,6.4c-3.8-0.1-6.1-2.5-6-6.3c0.1-3.6,2.4-5.8,5.9-5.9
	C535.6,370.2,537.4,372.7,538.1,376.1z"/>
<path class="st0" d="M778,117.9c-0.6,3.7-2.6,6.1-6.5,5.9c-3.8-0.2-6-2.7-5.8-6.5c0.2-3.6,2.5-5.7,6.1-5.7
	C775.7,111.7,777.6,114.2,778,117.9z"/>
<path class="st0" d="M435.6,119c-0.6,3.7-2.6,6.1-6.5,5.9c-3.8-0.2-6-2.7-5.8-6.5c0.2-3.6,2.5-5.7,6.1-5.7
	C433.3,112.8,435.2,115.2,435.6,119z"/>
<path class="st0" d="M278.3,423c-3.8-0.5-6.2-2.6-6-6.5c0.2-3.8,2.6-6.1,6.4-5.9c3.6,0.2,5.8,2.5,5.8,6
	C284.5,420.6,282.1,422.5,278.3,423z"/>
<path class="st0" d="M57.8,436c-1.6-2.3-3.9-4.3-4.6-6.9c-0.8-3.1,3-6.4,6.2-6c3.5,0.4,6.1,2.8,5.4,6.1c-0.5,2.5-3.1,4.5-4.7,6.7
	C59.4,436,58.6,436,57.8,436z"/>
<path class="st0" d="M194.3,35.9c-2.2,1.7-4.1,4.1-6.6,4.9c-3,1-6.5-2.6-6.3-5.8c0.2-3.6,2.4-6.2,5.8-5.8c2.5,0.3,4.6,2.8,7,4.4
	C194.2,34.4,194.3,35.1,194.3,35.9z"/>
<path class="st0" d="M801.4,214.1c-2.3,1.6-4.3,4-6.8,4.7c-3,0.9-6.4-2.9-6-6.1c0.4-3.5,2.7-6.1,6-5.5c2.5,0.4,4.5,3,6.8,4.6
	C801.4,212.5,801.4,213.3,801.4,214.1z"/>
<path class="st0" d="M740.4,208.7c-2.2,1.7-4.1,4.1-6.6,4.9c-3,1-6.5-2.6-6.2-5.9c0.2-3.6,2.5-6.2,5.8-5.7c2.5,0.3,4.6,2.9,7,4.4
	C740.3,207.1,740.4,207.9,740.4,208.7z"/>
<path class="st0" d="M676.4,146.8c-3.7-0.6-6.1-2.7-5.9-6.6c0.2-3.8,2.7-6,6.5-5.7c3.6,0.2,5.7,2.6,5.6,6.2
	C682.6,144.5,680.2,146.4,676.4,146.8z"/>
<path class="st0" d="M396.4,139.8c1.6,2.2,4,4.2,4.7,6.8c0.9,3-2.8,6.4-6,6.1c-3.5-0.3-6.2-2.6-5.6-6c0.4-2.5,3-4.6,4.5-6.8
	C394.8,139.9,395.6,139.9,396.4,139.8z"/>
<path class="st0" d="M672.5,195.7c1.6,2.2,4,4.2,4.8,6.7c0.9,3-2.8,6.4-6,6.2c-3.6-0.3-6.2-2.6-5.6-5.9c0.4-2.5,2.9-4.6,4.5-6.9
	C670.9,195.8,671.7,195.7,672.5,195.7z"/>
<path class="st0" d="M59.8,148.9c-2.3,1.6-4.3,4-6.8,4.7c-3,0.9-6.4-2.8-6.1-6c0.3-3.5,2.6-6.2,6-5.6c2.5,0.4,4.5,3,6.8,4.6
	C59.8,147.3,59.8,148.1,59.8,148.9z"/>
<path class="st0" d="M227.8,294.7c-4-0.6-6.4-2.6-6.2-6.5c0.2-3.8,2.6-6,6.4-5.8c3.6,0.2,5.7,2.5,5.7,6.1
	C233.8,292.3,231.3,294.2,227.8,294.7z"/>
<path class="st0" d="M807.6,152.2c-2.3,1.6-4.3,3.9-6.9,4.6c-3.1,0.8-6.4-3-6-6.2c0.4-3.5,2.7-6.1,6.1-5.4c2.5,0.5,4.5,3.1,6.7,4.7
	C807.6,150.6,807.6,151.4,807.6,152.2z"/>
<path class="st0" d="M1246.2,471.6c-2.2,1.6-4.2,4-6.7,4.8c-3,0.9-6.4-2.8-6.1-6c0.3-3.5,2.6-6.2,6-5.6c2.4,0.4,4.6,2.9,6.8,4.5
	C1246.1,470,1246.2,470.8,1246.2,471.6z"/>
<path class="st0" d="M605.3,320.1c-0.5,4.1-2.4,6.6-6.3,6.5c-3.9,0-6.1-2.4-6.1-6.2c0.1-3.6,2.3-5.8,5.9-5.9
	C602.7,314.3,604.6,316.8,605.3,320.1z"/>
<path class="st0" d="M704.8,167.4c3.7,0.6,6.1,2.7,5.8,6.6c-0.3,3.8-2.7,6-6.6,5.7c-3.6-0.3-5.7-2.6-5.6-6.2
	C698.5,169.7,701,167.7,704.8,167.4z"/>
<path class="st0" d="M547.5,185c3.7,0.6,6.1,2.7,5.9,6.6c-0.2,3.8-2.7,6-6.5,5.8c-3.6-0.2-5.7-2.5-5.7-6.1
	C541.3,187.3,543.7,185.4,547.5,185z"/>
<path class="st0" d="M766.8,186.1c-3.8-0.4-6.3-2.3-6.3-6.1c0-3.9,2.3-6.2,6.1-6.2c3.6,0,5.9,2.2,6,5.7
	C772.9,183.4,770.5,185.4,766.8,186.1z"/>
<path class="st0" d="M1302.5,468.8c1.6,2.3,4,4.3,4.7,6.8c0.9,3-2.9,6.4-6.1,6c-3.5-0.4-6.2-2.7-5.6-6c0.4-2.5,3-4.5,4.6-6.8
	C1300.9,468.8,1301.7,468.8,1302.5,468.8z"/>
<path class="st0" d="M481.1,309.3c-0.6,3.7-2.6,6.1-6.5,6c-3.8-0.2-6-2.6-5.8-6.5c0.2-3.6,2.5-5.7,6.1-5.7
	C478.8,303.1,480.7,305.5,481.1,309.3z"/>
<path class="st0" d="M492.9,187.3c-2.3,1.5-4.7,4.3-6.8,4.1c-1.9-0.1-4.9-3.3-5.3-5.4c-0.6-3.4,2.2-6.1,5.7-5.5
	c2.3,0.4,4.3,2.9,6.3,4.4C492.9,185.7,492.9,186.5,492.9,187.3z"/>
<path class="st0" d="M830.2,178.5c1.4,2.4,4.1,4.8,3.8,7c-0.2,1.9-3.5,4.7-5.6,5c-3.5,0.5-6-2.5-5.2-5.9c0.5-2.3,3.1-4.1,4.7-6.2
	C828.7,178.4,829.4,178.5,830.2,178.5z"/>
<path class="st0" d="M812.5,91.2c-2.3,1.5-4.7,4.2-6.9,4c-1.9-0.2-4.8-3.3-5.2-5.5c-0.6-3.5,2.4-6.1,5.8-5.4c2.3,0.4,4.2,3,6.3,4.6
	C812.5,89.7,812.5,90.4,812.5,91.2z"/>
<path class="st0" d="M745.1,77c1.5,2.3,4.3,4.6,4.1,6.8c-0.1,1.9-3.2,4.9-5.4,5.3c-3.4,0.6-6.1-2.2-5.5-5.7c0.4-2.3,2.9-4.3,4.4-6.4
	C743.5,77.1,744.3,77,745.1,77z"/>
<path class="st0" d="M312.8,396.8c-2.8-3.5-5.3-5.4-5.8-7.7c-0.7-3.5,1.8-5.9,5.4-6c3.6-0.1,6.2,2.3,5.7,5.7
	C317.7,391.2,315.3,393.2,312.8,396.8z"/>
<path class="st0" d="M1366.3,542.7c-3.5,2.8-5.4,5.3-7.7,5.8c-3.5,0.7-5.9-1.7-6.1-5.4c-0.1-3.6,2.2-6.2,5.8-5.7
	C1360.6,537.7,1362.6,540.1,1366.3,542.7z"/>
<path class="st0" d="M1266.9,510.2c-1.4-2.3-4.2-4.7-4-6.9c0.2-1.9,3.4-4.8,5.5-5.1c3.5-0.6,6.1,2.4,5.4,5.8c-0.4,2.3-3,4.2-4.6,6.2
	C1268.4,510.2,1267.6,510.2,1266.9,510.2z"/>
<path class="st0" d="M832.4,59.7c2.3-1.5,4.6-4.3,6.8-4.2c2,0.1,4.9,3.2,5.4,5.3c0.7,3.4-2.1,6.1-5.6,5.6c-2.3-0.4-4.3-2.8-6.4-4.3
	C832.4,61.3,832.4,60.5,832.4,59.7z"/>
<path class="st0" d="M884.7,260.3c-2.8-3.5-5.3-5.4-5.8-7.7c-0.7-3.5,1.8-5.9,5.4-6c3.6-0.1,6.2,2.3,5.7,5.7
	C889.7,254.6,887.3,256.6,884.7,260.3z"/>
<path class="st0" d="M863.2,219.2c-2.2,1.5-4.6,4.4-6.8,4.3c-1.9-0.1-4.9-3.1-5.4-5.3c-0.7-3.4,2.1-6.1,5.6-5.6
	c2.3,0.3,4.3,2.8,6.4,4.3C863.1,217.6,863.2,218.5,863.2,219.2z"/>
<path class="st0" d="M666.6,271.7c-2.8-3.5-5.4-5.3-5.9-7.6c-0.8-3.5,1.7-6,5.3-6.1c3.6-0.2,6.2,2.1,5.8,5.7
	C671.5,266,669.1,268,666.6,271.7z"/>
<path class="st0" d="M959.4,540.1c-2.3,1.5-4.7,4.3-6.8,4.1c-1.9-0.1-4.9-3.2-5.3-5.4c-0.6-3.4,2.2-6.1,5.7-5.5
	c2.3,0.4,4.3,2.9,6.3,4.4C959.4,538.5,959.4,539.3,959.4,540.1z"/>
<path class="st0" d="M584,568.9c-2.2,1.5-4.6,4.4-6.8,4.2c-1.9-0.1-4.9-3.2-5.4-5.3c-0.7-3.4,2.1-6.1,5.6-5.6
	c2.3,0.4,4.3,2.8,6.4,4.3C583.9,567.4,583.9,568.1,584,568.9z"/>
<path class="st0" d="M338.1,545.7c-3.5,2.8-5.3,5.3-7.6,5.8c-3.5,0.8-6-1.7-6.1-5.3c-0.1-3.6,2.2-6.2,5.7-5.8
	C332.4,540.8,334.5,543.2,338.1,545.7z"/>
<path class="st0" d="M306.7,171c-2.4,1.4-4.8,4.1-7,3.9c-1.9-0.2-4.8-3.4-5.1-5.6c-0.5-3.5,2.4-6,5.9-5.3c2.3,0.5,4.2,3.1,6.2,4.7
	C306.7,169.4,306.7,170.2,306.7,171z"/>
<path class="st0" d="M1016.3,607.3c-2.3,1.5-4.7,4.2-6.9,4.1c-1.9-0.1-4.8-3.3-5.2-5.5c-0.6-3.5,2.2-6.1,5.8-5.5
	c2.3,0.4,4.2,2.9,6.4,4.5C1016.3,605.8,1016.3,606.5,1016.3,607.3z"/>
<path class="st0" d="M1329.4,159.8c1.5,2.3,4.4,4.6,4.3,6.8c-0.1,1.9-3.1,4.9-5.3,5.4c-3.4,0.7-6.1-2.1-5.6-5.6
	c0.3-2.3,2.8-4.3,4.3-6.4C1327.8,159.8,1328.6,159.8,1329.4,159.8z"/>
<path class="st0" d="M981.4,563.9c2.8,3.5,5.3,5.3,5.8,7.6c0.8,3.5-1.7,6-5.3,6.1c-3.6,0.1-6.2-2.1-5.8-5.7
	C976.5,569.6,978.9,567.6,981.4,563.9z"/>
<path class="st0" d="M638.8,293.9c-2.3,1.5-4.7,4.3-6.9,4.1c-1.9-0.1-4.9-3.3-5.3-5.4c-0.6-3.5,2.2-6.1,5.7-5.5
	c2.3,0.4,4.2,2.9,6.3,4.5C638.7,292.3,638.8,293.1,638.8,293.9z"/>
<path class="st0" d="M228.1,8.3c-2.3,1.5-4.6,4.3-6.8,4.2c-1.9-0.1-4.9-3.2-5.3-5.4c-0.6-3.4,2.2-6.1,5.7-5.5C224,2,225.9,4.5,228,6
	C228.1,6.8,228.1,7.6,228.1,8.3z"/>
<path class="st0" d="M318.7,320.6c1.4,1.9,3.7,3.7,4.1,5.8c0.7,3.3-1.7,6-5,5.3c-2-0.4-4.7-3-4.9-4.9c-0.3-1.8,2.2-4,3.5-6.1
	C317,320.7,317.9,320.6,318.7,320.6z"/>
<path class="st0" d="M863,151c1.3,2,3.5,3.8,3.9,5.9c0.6,3.4-1.9,5.9-5.2,5.1c-2-0.5-4.5-3.2-4.7-5.1c-0.2-1.8,2.4-4,3.7-5.9
	C861.3,151,862.2,151,863,151z"/>
<path class="st0" d="M212.3,537.1c-2.2,1.3-4.2,3.5-6.5,3.8c-3.4,0.4-5.8-2.3-5-5.5c0.5-2,3.3-4.7,5.2-4.8c2-0.1,4.2,2.5,6.3,3.9
	C212.3,535.4,212.3,536.2,212.3,537.1z"/>
<path class="st0" d="M1409.3,322.8c1.3,2,3.8,4.2,3.5,6c-0.3,1.9-2.9,4.6-4.9,5c-3.3,0.7-5.7-1.9-5.1-5.2c0.4-2.1,2.6-3.9,4-5.8
	C1407.7,322.7,1408.5,322.7,1409.3,322.8z"/>
<path class="st0" d="M440.6,344.2c-1.3-2-3.9-4.1-3.7-5.9c0.2-1.9,2.8-4.7,4.7-5.1c3.3-0.8,5.8,1.7,5.2,5.1c-0.3,2.1-2.5,4-3.9,5.9
	C442.2,344.2,441.4,344.2,440.6,344.2z"/>
<path class="st0" d="M274.3,542.4c-2.2,1.3-4.3,3.5-6.6,3.7c-3.4,0.4-5.7-2.4-4.8-5.6c0.6-2,3.4-4.7,5.3-4.7c2,0,4.1,2.6,6.2,4.1
	C274.4,540.7,274.3,541.6,274.3,542.4z"/>
<path class="st0" d="M760.3,247.2c-1.4-2.1-3.7-4.1-4.1-6.4c-0.5-3.4,2-5.9,5.3-5.1c2,0.5,4.8,3.2,5,5c0.1,2-2.4,4.3-3.7,6.4
	C762,247.1,761.1,247.1,760.3,247.2z"/>
<path class="st0" d="M440.9,274.3c2.2-1.2,4.4-3.3,6.8-3.5c3.5-0.2,5.6,2.7,4.6,5.8c-0.7,2-3.6,4.5-5.4,4.5c-2-0.1-4-2.8-6-4.3
	C440.7,276,440.8,275.1,440.9,274.3z"/>
<path class="st0" d="M587.6,164.2c-1.9,1.4-3.7,3.7-5.8,4.1c-3.3,0.7-6-1.7-5.3-5c0.4-2,3-4.7,5-4.9c1.8-0.3,4,2.2,6.1,3.5
	C587.5,162.6,587.5,163.4,587.6,164.2z"/>
<path class="st0" d="M555.6,466.5c1.4,1.9,3.6,3.7,4,5.9c0.6,3.4-1.8,5.9-5.1,5.2c-2-0.4-4.6-3.1-4.9-5c-0.2-1.8,2.3-4,3.5-6
	C554,466.5,554.8,466.5,555.6,466.5z"/>
<path class="st0" d="M812.3,21.7c1.3,2,3.5,3.8,3.9,5.9c0.6,3.4-1.9,5.9-5.2,5.1c-2-0.5-4.5-3.2-4.7-5.1c-0.2-1.8,2.4-4,3.7-5.9
	C810.6,21.7,811.4,21.7,812.3,21.7z"/>
<path class="st0" d="M124.2,36.1c-1.4-2.1-3.7-4.1-4.1-6.3c-0.6-3.4,2-5.9,5.3-5.1c2,0.5,4.8,3.1,5,5c0.2,2-2.4,4.3-3.7,6.4
	C125.9,36.1,125,36.1,124.2,36.1z"/>
<path class="st0" d="M613.5,141.4c-1.4-1.9-3.6-3.7-4-5.8c-0.6-3.4,1.8-6,5.1-5.2c2,0.4,4.6,3.1,4.9,5c0.2,1.8-2.2,4-3.5,6
	C615.1,141.4,614.3,141.4,613.5,141.4z"/>
<path class="st0" d="M628.4,347.6c1.3,2,3.8,4.2,3.5,6c-0.3,1.9-2.9,4.6-4.9,5c-3.3,0.7-5.7-1.9-5.1-5.2c0.4-2.1,2.6-3.9,4-5.9
	C626.8,347.5,627.6,347.5,628.4,347.6z"/>
<path class="st0" d="M458.4,215.5c-2.2,1.3-4.3,3.5-6.6,3.7c-3.4,0.4-5.7-2.5-4.8-5.6c0.6-2,3.4-4.7,5.3-4.7c2,0,4.1,2.6,6.2,4.1
	C458.4,213.8,458.4,214.6,458.4,215.5z"/>
<path class="st0" d="M835.1,116.7c1.4,2.2,3.6,4.2,3.9,6.5c0.5,3.4-2.2,5.8-5.4,5c-2-0.5-4.8-3.3-4.9-5.1c-0.1-2,2.5-4.2,3.8-6.4
	C833.4,116.7,834.3,116.7,835.1,116.7z"/>
<path class="st0" d="M111.2,209c1.3,2,3.8,4.2,3.5,6c-0.3,1.9-2.9,4.6-4.9,5c-3.3,0.7-5.7-1.9-5.1-5.2c0.4-2.1,2.6-3.9,4-5.9
	C109.6,208.9,110.4,208.9,111.2,209z"/>
<path class="st0" d="M476,372.6c-2.1,1.3-4.2,3.6-6.5,3.9c-3.4,0.4-5.8-2.3-5-5.5c0.5-2,3.3-4.7,5.2-4.8c2-0.1,4.2,2.5,6.3,3.9
	C476.1,370.9,476,371.8,476,372.6z"/>
<path class="st0" d="M1272,447.8c-1.3-2.1-3.5-4.2-3.8-6.5c-0.4-3.4,2.3-5.8,5.5-4.9c2,0.5,4.7,3.3,4.8,5.2c0.1,2-2.5,4.2-3.9,6.3
	C1273.7,447.8,1272.9,447.8,1272,447.8z"/>
<path class="st0" d="M889.2,196.2c-1.2-2-3.7-4.3-3.5-6.1c0.3-1.9,2.9-4.6,4.9-5c3.3-0.7,5.7,2,5,5.3c-0.4,2.1-2.7,3.9-4.1,5.8
	C890.9,196.3,890.1,196.2,889.2,196.2z"/>
<path class="st0" d="M479.6,596.8c-1.3-2.2-3.4-4.3-3.7-6.6c-0.4-3.4,2.5-5.7,5.6-4.8c2,0.6,4.6,3.4,4.7,5.3c0,2-2.6,4.1-4.1,6.2
	C481.3,596.8,480.4,596.8,479.6,596.8z"/>
<path class="st0" d="M1181.4,66c-1.4-1.9-3.7-3.7-4.1-5.8c-0.7-3.4,1.7-6,5-5.3c2,0.4,4.7,3.1,4.9,5c0.2,1.8-2.2,4-3.5,6.1
	C1183.1,65.9,1182.3,65.9,1181.4,66z"/>
<path class="st0" d="M924.8,226.1c-2.2,1.2-4.4,3.3-6.8,3.5c-3.5,0.2-5.6-2.7-4.6-5.8c0.7-2,3.6-4.5,5.4-4.5c2,0.1,4,2.8,6,4.3
	C924.9,224.4,924.9,225.3,924.8,226.1z"/>
<path class="st0" d="M1439.7,292.8c0,5.5,0,10.5,0,15.9c-4.5-0.8-6.7-3.6-6.8-7.8C1432.7,296.7,1435.2,294.1,1439.7,292.8z"/>
<path class="st0" d="M825,240.9c1.3,2.2,3.5,4.3,3.7,6.6c0.4,3.4-2.4,5.7-5.6,4.8c-2-0.6-4.7-3.4-4.7-5.3c0-2,2.6-4.1,4.1-6.2
	C823.3,240.8,824.1,240.8,825,240.9z"/>
<path class="st0" d="M397.4,552.7c-2.2,1.3-4.3,3.5-6.6,3.7c-3.4,0.4-5.7-2.4-4.8-5.6c0.6-2,3.4-4.7,5.3-4.7c2,0,4.2,2.6,6.2,4.1
	C397.4,551.1,397.4,551.9,397.4,552.7z"/>
<path class="st0" d="M1335.4,510.6c-2.2,1.2-4.4,3.3-6.8,3.5c-3.5,0.2-5.6-2.7-4.6-5.8c0.6-2,3.6-4.5,5.4-4.5c2,0.1,4,2.8,6,4.3
	C1335.5,508.9,1335.5,509.7,1335.4,510.6z"/>
<path class="st0" d="M705.6,237.2c-2.2,1.3-4.3,3.5-6.6,3.7c-3.4,0.4-5.7-2.4-4.8-5.6c0.6-2,3.4-4.7,5.3-4.7c2,0,4.2,2.6,6.2,4.1
	C705.7,235.5,705.6,236.4,705.6,237.2z"/>
<path class="st0" d="M149.2,188.4c-2.2,1.4-4.2,3.6-6.4,3.9c-3.4,0.5-5.8-2.2-5-5.4c0.5-2,3.3-4.8,5.1-4.9c2-0.1,4.2,2.5,6.4,3.8
	C149.2,186.7,149.2,187.6,149.2,188.4z"/>
<path class="st0" d="M59.6,79.5c1.3,2.2,3.5,4.3,3.7,6.6c0.4,3.4-2.4,5.7-5.6,4.8c-2-0.6-4.7-3.4-4.7-5.3c0-2,2.6-4.2,4.1-6.2
	C57.9,79.4,58.8,79.5,59.6,79.5z"/>
<path class="st0" d="M1392.7,509c1.3,2,3.8,4.2,3.5,6c-0.3,1.9-2.9,4.6-4.9,5c-3.3,0.7-5.7-1.9-5.1-5.3c0.4-2.1,2.7-3.9,4.1-5.9
	C1391.1,508.9,1391.9,508.9,1392.7,509z"/>
<path class="st0" d="M869,89.1c1.3,2,3.8,4.1,3.7,6c-0.1,1.7-3,3.3-4.7,5c-1.7-1.7-4.5-3.3-4.9-5.3c-0.3-1.6,2.3-3.7,3.7-5.6
	C867.6,89.2,868.3,89.1,869,89.1z"/>
<path class="st0" d="M1217.2,437.8c-2.1,1.2-4.3,3.6-6.2,3.4c-1.7-0.2-4.7-3.6-4.3-4.9c0.5-2,3.2-4.4,5.2-4.7c1.6-0.2,3.6,2.6,5.4,4
	C1217.2,436.3,1217.2,437.1,1217.2,437.8z"/>
<path class="st0" d="M874.9,438.7c-2,1.3-4.2,3.7-6.1,3.5c-1.7-0.1-4.8-3.4-4.5-4.7c0.4-2,3.1-4.5,5.1-4.8c1.6-0.3,3.7,2.4,5.5,3.8
	C874.9,437.2,874.9,437.9,874.9,438.7z"/>
<path class="st0" d="M498.8,399.4c1.3,2,3.8,4.1,3.6,6.1c-0.1,1.7-3.4,4.8-4.6,4.6c-2-0.4-4.6-3-4.9-5c-0.3-1.6,2.4-3.7,3.7-5.6
	C497.4,399.5,498.1,399.4,498.8,399.4z"/>
<path class="st0" d="M54.7,553.5c-2,1.3-4.2,3.7-6.1,3.6c-1.7-0.1-4.8-3.4-4.5-4.7c0.4-2,3-4.5,5-4.9c1.6-0.3,3.7,2.4,5.5,3.8
	C54.6,552,54.7,552.7,54.7,553.5z"/>
<path class="st0" d="M1335.9,98.5c1.2,2.1,3.5,4.3,3.3,6.3c-0.2,1.7-3.6,4.7-4.9,4.3c-2-0.5-4.4-3.2-4.6-5.3c-0.2-1.6,2.6-3.6,4-5.4
	C1334.4,98.4,1335.2,98.4,1335.9,98.5z"/>
<path class="st0" d="M459,558.8c-2.1,1.2-4.3,3.6-6.2,3.4c-1.7-0.2-4.7-3.6-4.3-4.9c0.5-2,3.2-4.4,5.2-4.7c1.6-0.2,3.6,2.6,5.4,4
	C459.1,557.4,459,558.1,459,558.8z"/>
<path class="st0" d="M143.7,536.7c-2.3-3.3-4.9-5.4-4.6-7c0.4-2,3.2-3.6,4.9-5.3c1.6,1.8,4.3,3.5,4.6,5.5
	C148.9,531.5,146.2,533.5,143.7,536.7z"/>
<path class="st0" d="M246.6,439.8c1.3,2,3.7,4.2,3.5,6.1c-0.1,1.7-3.5,4.8-4.7,4.5c-2-0.5-4.5-3.1-4.8-5.1c-0.3-1.6,2.5-3.7,3.9-5.5
	C245.1,439.8,245.8,439.8,246.6,439.8z"/>
<path class="st0" d="M1341.4,448.9c-2.1,1.3-4.1,3.8-6.1,3.6c-1.7-0.1-4.8-3.4-4.6-4.6c0.4-2,3-4.6,5-4.9c1.6-0.3,3.7,2.4,5.6,3.7
	C1341.3,447.5,1341.3,448.2,1341.4,448.9z"/>
<path class="st0" d="M783.8,57.1c-2.1,1.2-4.3,3.5-6.3,3.3c-1.7-0.2-4.7-3.6-4.3-4.9c0.5-2,3.2-4.4,5.3-4.6c1.6-0.2,3.6,2.6,5.4,4
	C783.8,55.7,783.8,56.4,783.8,57.1z"/>
<path class="st0" d="M541.8,601.6c-1.2-2.1-3.6-4.3-3.4-6.2c0.2-1.7,3.6-4.7,4.9-4.3c2,0.5,4.4,3.2,4.7,5.2c0.2,1.6-2.6,3.6-4,5.4
	C543.2,601.6,542.5,601.6,541.8,601.6z"/>
<path class="st0" d="M1296,545c-2.2-3.3-4.9-5.4-4.6-7c0.4-2,3.2-3.6,4.9-5.3c1.6,1.8,4.4,3.5,4.6,5.5
	C1301.2,539.8,1298.4,541.8,1296,545z"/>
<path class="st0" d="M288.7,299.5c-1.3-2-3.8-4.1-3.7-6c0.1-1.7,3.3-4.9,4.6-4.6c2,0.4,4.6,3,5,5c0.3,1.6-2.4,3.7-3.7,5.6
	C290.1,299.5,289.4,299.5,288.7,299.5z"/>
<path class="st0" d="M1346.8,42.5c-3.3,2.3-5.4,4.9-7,4.5c-2-0.4-3.5-3.2-5.3-4.9c1.8-1.6,3.5-4.3,5.6-4.6
	C1341.6,37.2,1343.7,40,1346.8,42.5z"/>
<path class="st0" d="M497.4,125.1c-2,1.3-4.1,3.8-6,3.7c-1.7-0.1-3.4-3-5-4.6c1.7-1.7,3.3-4.5,5.3-4.9c1.6-0.3,3.7,2.3,5.6,3.6
	C497.3,123.6,497.4,124.3,497.4,125.1z"/>
<path class="st0" d="M1316.7,296.4c-1.3-2-3.7-4.2-3.6-6.1c0.1-1.7,3.4-4.8,4.7-4.6c2,0.4,4.5,3,4.9,5c0.3,1.6-2.4,3.7-3.8,5.6
	C1318.2,296.4,1317.5,296.4,1316.7,296.4z"/>
<path class="st0" d="M952.4,258.9c-2.1,1.2-4.3,3.5-6.3,3.3c-1.7-0.2-4.7-3.6-4.3-4.9c0.5-2,3.3-4.4,5.3-4.6
	c1.6-0.2,3.6,2.6,5.4,4.1C952.4,257.4,952.4,258.2,952.4,258.9z"/>
<path class="st0" d="M1363.2,488c-2.3-3.3-4.9-5.4-4.6-7c0.4-2,3.2-3.6,4.9-5.3c1.7,1.8,4.4,3.5,4.7,5.5
	C1368.4,482.9,1365.7,484.9,1363.2,488z"/>
<path class="st0" d="M520.6,152.2c1.3,2,3.7,4.2,3.6,6.1c-0.1,1.7-3.4,4.8-4.7,4.5c-2-0.4-4.5-3-4.9-5.1c-0.3-1.6,2.4-3.7,3.8-5.5
	C519.1,152.2,519.9,152.2,520.6,152.2z"/>
<path class="st0" d="M1205.2,504.4c-1.4-2-3.9-4-3.8-6c0.1-1.7,2.9-3.4,4.6-5.1c1.8,1.7,4.6,3.2,5,5.2c0.3,1.6-2.2,3.8-3.6,5.7
	C1206.7,504.3,1205.9,504.4,1205.2,504.4z"/>
<path class="st0" d="M70.2,25.9c-2,1.3-4.2,3.7-6.1,3.5c-1.7-0.1-4.8-3.4-4.5-4.7c0.4-2,3.1-4.5,5.1-4.8c1.6-0.3,3.7,2.5,5.5,3.8
	C70.2,24.5,70.2,25.2,70.2,25.9z"/>
<path class="st0" d="M205.9,186.3c1.4,2,3.9,4,3.8,5.9c0,1.7-2.9,3.4-4.5,5.1c-1.8-1.7-4.6-3.2-5-5.2c-0.3-1.6,2.2-3.8,3.5-5.7
	C204.4,186.4,205.2,186.3,205.9,186.3z"/>
<path class="st0" d="M41.2-8.2c-2,1.3-4.2,3.7-6.1,3.5c-1.7-0.1-4.8-3.4-4.5-4.7c0.4-2,3.1-4.5,5.1-4.8c1.6-0.3,3.7,2.5,5.5,3.8
	C41.2-9.7,41.2-9,41.2-8.2z"/>
<path class="st0" d="M430.1,182.1c-2,1.3-4.2,3.7-6.1,3.6c-1.7-0.1-4.8-3.4-4.5-4.7c0.4-2,3-4.5,5-4.9c1.6-0.3,3.7,2.4,5.5,3.8
	C430.1,180.6,430.1,181.3,430.1,182.1z"/>
<path class="st0" d="M693.9,17.4c-2,1.4-4,3.9-5.9,3.8c-1.7,0-3.4-2.9-5.1-4.5c1.7-1.8,3.2-4.6,5.2-5c1.6-0.3,3.8,2.3,5.7,3.5
	C693.9,15.9,693.9,16.6,693.9,17.4z"/>
<path class="st0" d="M925.1,497.5c2.3,3.3,4.9,5.4,4.5,7c-0.4,2-3.2,3.5-4.9,5.3c-1.6-1.8-4.3-3.5-4.6-5.6
	C919.9,502.6,922.6,500.6,925.1,497.5z"/>
<path class="st0" d="M368.1,175.8c-2,1.3-4.1,3.8-6.1,3.6c-1.7-0.1-4.8-3.4-4.6-4.6c0.4-2,3-4.6,5-4.9c1.6-0.3,3.7,2.4,5.6,3.7
	C368.1,174.4,368.1,175.1,368.1,175.8z"/>
<path class="st0" d="M456.2,157.8c-1.3-2-3.7-4.2-3.6-6.1c0.1-1.7,3.4-4.8,4.7-4.6c2,0.4,4.5,3,4.9,5c0.3,1.6-2.4,3.7-3.8,5.6
	C457.6,157.8,456.9,157.8,456.2,157.8z"/>
<path class="st0" d="M1149.1,82.1c1.3,1.9,3.9,3.9,3.7,5.5c-0.2,1.8-2.8,4.3-4.7,4.7c-1.3,0.2-4.3-2.6-4.5-4.3
	c-0.1-1.9,2.1-3.9,3.3-5.9C1147.7,82.2,1148.4,82.1,1149.1,82.1z"/>
<path class="st0" d="M165,3.2c-1.9,1.2-4.1,3.6-5.8,3.3c-1.8-0.3-4.1-3.1-4.3-5c-0.2-1.3,2.9-4.1,4.6-4.1c1.9,0,3.8,2.4,5.6,3.7
	C165.1,1.7,165,2.4,165,3.2z"/>
<path class="st0" d="M1251.1,409.7c-2,1.2-4,3.5-5.8,3.4c-1.7-0.1-4.5-3.1-4.3-4.4c0.3-1.9,2.8-4.5,4.6-4.8c1.7-0.2,3.7,2.3,5.6,3.7
	C1251.1,408.2,1251.1,409,1251.1,409.7z"/>
<path class="st0" d="M103-3.2c-1.9,1.3-4,3.8-5.7,3.5c-1.8-0.3-4.2-3-4.5-4.9c-0.2-1.3,2.8-4.2,4.4-4.3c1.9-0.1,3.8,2.2,5.7,3.5
	C103-4.7,103-4,103-3.2z"/>
<path class="st0" d="M839,409.9c-1.3-1.9-3.8-4-3.5-5.7c0.3-1.8,3-4.2,4.9-4.5c1.3-0.2,4.2,2.8,4.3,4.4c0.1,1.9-2.2,3.8-3.5,5.7
	C840.4,409.9,839.7,409.9,839,409.9z"/>
<path class="st0" d="M519.9,437.7c1.8-1.4,3.8-4,5.5-3.8c1.8,0.2,4.3,2.8,4.7,4.6c0.2,1.3-2.6,4.4-4.2,4.5c-1.9,0.2-3.9-2-5.9-3.3
	C520,439.1,520,438.4,519.9,437.7z"/>
<path class="st0" d="M406.4,371.6c-1.2-2-3.6-4.2-3.2-5.9c0.3-1.8,3.2-4,5.1-4.2c1.3-0.1,4.1,3,4.1,4.6c0,1.9-2.5,3.7-3.8,5.6
	C407.8,371.7,407.1,371.6,406.4,371.6z"/>
<path class="st0" d="M344.4,366.4c-1.2-2-3.6-4.2-3.3-5.8c0.3-1.8,3.1-4.1,5.1-4.3c1.3-0.1,4.1,3,4.1,4.6c0,1.9-2.4,3.7-3.8,5.6
	C345.8,366.5,345.1,366.5,344.4,366.4z"/>
<path class="st0" d="M1329.7,571.8c-1.9,1.3-4,3.8-5.6,3.6c-1.8-0.2-4.2-2.9-4.6-4.8c-0.2-1.3,2.7-4.3,4.4-4.4
	c1.9-0.1,3.9,2.2,5.8,3.4C1329.7,570.4,1329.7,571.1,1329.7,571.8z"/>
<path class="st0" d="M660.9,320c1.3,1.9,3.9,3.9,3.7,5.5c-0.2,1.8-2.8,4.3-4.7,4.7c-1.3,0.2-4.3-2.6-4.5-4.3
	c-0.1-1.9,2.1-3.9,3.3-5.9C659.5,320.1,660.2,320.1,660.9,320z"/>
<path class="st0" d="M1179.4,458.7c1.2,1.9,3.5,4,3.4,5.8c-0.1,1.6-3.1,4.5-4.4,4.3c-1.9-0.3-4.5-2.8-4.8-4.6
	c-0.2-1.7,2.3-3.7,3.6-5.6C1178,458.7,1178.8,458.7,1179.4,458.7z"/>
<path class="st0" d="M902.5,472.8c-1.9,1.2-4.1,3.6-5.8,3.3c-1.8-0.3-4.1-3.1-4.3-5c-0.2-1.3,2.9-4.1,4.6-4.1c1.9,0,3.8,2.4,5.6,3.7
	C902.5,471.4,902.5,472.1,902.5,472.8z"/>
<path class="st0" d="M1296.4,188.7c1.2,1.9,3.5,4,3.4,5.8c-0.1,1.6-3.1,4.5-4.4,4.3c-1.9-0.3-4.5-2.8-4.8-4.6
	c-0.2-1.7,2.3-3.7,3.6-5.6C1294.9,188.7,1295.7,188.7,1296.4,188.7z"/>
<path class="st0" d="M721.5,51.7c-1.9,1.2-4.1,3.7-5.7,3.4c-1.8-0.3-4.2-3-4.4-4.9c-0.2-1.3,2.9-4.2,4.5-4.2c1.9,0,3.8,2.3,5.7,3.6
	C721.5,50.3,721.5,51,721.5,51.7z"/>
<path class="st0" d="M919,286.7c-2,1.2-4.2,3.6-5.8,3.3c-1.8-0.3-4.1-3.1-4.3-5c-0.1-1.3,3-4.1,4.6-4.1c1.9,0,3.7,2.4,5.6,3.8
	C919.1,285.2,919.1,286,919,286.7z"/>
<path class="st0" d="M857,281.5c-2,1.2-4.2,3.6-5.8,3.3c-1.8-0.3-4.1-3.1-4.3-5.1c-0.1-1.3,3-4.1,4.6-4.1c1.9,0,3.7,2.4,5.6,3.8
	C857,280.1,857,280.8,857,281.5z"/>
<path class="st0" d="M794.9,276.3c-2,1.2-4.2,3.6-5.8,3.3c-1.8-0.3-4.1-3.1-4.3-5.1c-0.1-1.3,3-4.1,4.6-4.1c1.9,0,3.7,2.4,5.6,3.8
	C795,274.9,795,275.6,794.9,276.3z"/>
<path class="st0" d="M721.6,269c1.8-1.4,3.8-4,5.5-3.8c1.8,0.2,4.3,2.8,4.7,4.6c0.3,1.3-2.6,4.4-4.2,4.5c-1.8,0.2-3.9-2-5.9-3.3
	C721.7,270.4,721.7,269.7,721.6,269z"/>
<path class="st0" d="M547.1,540.3c-1.2-1.9-3.6-4.1-3.3-5.8c0.3-1.8,3.1-4.1,5-4.3c1.3-0.1,4.1,2.9,4.1,4.6c0,1.9-2.4,3.7-3.7,5.6
	C548.5,540.3,547.8,540.3,547.1,540.3z"/>
<path class="st0" d="M143.4,250c-1.8,1.3-3.9,3.9-5.5,3.7c-1.8-0.2-4.3-2.8-4.7-4.7c-0.2-1.3,2.6-4.3,4.3-4.5
	c1.9-0.1,3.9,2.1,5.9,3.3C143.3,248.6,143.4,249.3,143.4,250z"/>
<path class="st0" d="M1216.7,26.3c1.2,1.9,3.7,4.1,3.4,5.8c-0.3,1.8-3.1,4.1-5,4.4c-1.3,0.2-4.1-2.9-4.2-4.6c0-1.9,2.4-3.8,3.7-5.6
	C1215.3,26.3,1216,26.3,1216.7,26.3z"/>
<path class="st0" d="M1346.1,330.2c-2.2-3-4.6-4.8-4.5-6.3c0.1-1.6,2.5-4.3,4-4.4c1.5-0.1,4.1,2.4,4.4,4
	C1350.2,325,1348.1,327,1346.1,330.2z"/>
<path class="st0" d="M1306.6,407c2.1,3.2,4.3,5,4.1,6.6c-0.2,1.6-2.8,3-4.3,4.5c-1.5-1.5-4-2.9-4.1-4.6
	C1302.2,412,1304.4,410.2,1306.6,407z"/>
<path class="st0" d="M930.4,162.4c-3.2,2.1-5,4.3-6.6,4.1c-1.6-0.2-4.2-2.8-4.1-4.3c0-1.5,2.6-4,4.3-4.1
	C925.5,157.9,927.3,160.2,930.4,162.4z"/>
<path class="st0" d="M1240.7,531.3c-3,2.2-4.8,4.6-6.3,4.5c-1.6-0.1-4.3-2.5-4.4-4c-0.1-1.5,2.4-4.1,4-4.4
	C1235.5,527.1,1237.5,529.3,1240.7,531.3z"/>
<path class="st0" d="M442.2,399.4c-3.2,2-5.2,4.2-6.7,3.9c-1.6-0.3-4.1-2.9-4-4.4c0.1-1.5,2.7-3.9,4.4-4
	C437.4,394.8,439.2,397.2,442.2,399.4z"/>
<path class="st0" d="M929.1,106.8c-2.2-3.1-4.4-4.9-4.3-6.5c0.2-1.6,2.7-4.2,4.1-4.3c1.5,0,4,2.5,4.3,4.1
	C933.4,101.7,931.2,103.6,929.1,106.8z"/>
<path class="st0" d="M515.4,556c2.1,3.2,4.3,5,4.1,6.6c-0.2,1.6-2.8,3-4.3,4.5c-1.5-1.5-4-2.9-4.1-4.6
	C510.9,560.9,513.2,559.1,515.4,556z"/>
<path class="st0" d="M425.6,241.7c-3,2.3-4.8,4.6-6.3,4.5c-1.6-0.1-4.3-2.6-4.4-4c-0.1-1.5,2.4-4.1,4-4.4
	C420.5,237.5,422.4,239.6,425.6,241.7z"/>
<path class="st0" d="M1300.2,125.7c2.2,3.1,4.4,4.9,4.3,6.5c-0.2,1.6-2.7,4.2-4.1,4.3c-1.5,0-4-2.5-4.3-4.1
	C1295.9,130.7,1298.1,128.8,1300.2,125.7z"/>
<path class="st0" d="M36.7,52.7c-3.2,2.1-5,4.3-6.6,4.1C28.5,56.6,26,54,26,52.5s2.6-4,4.3-4.1C31.8,48.2,33.6,50.5,36.7,52.7z"/>
<path class="st0" d="M1289.9,263c-2.1-3.2-4.3-5-4.1-6.6c0.2-1.6,2.8-4.2,4.3-4.1c1.5,0,4,2.6,4.1,4.3
	C1294.3,258,1292.1,259.9,1289.9,263z"/>
<path class="st0" d="M419.5,303.9c-3.1,2.2-4.9,4.4-6.5,4.3c-1.6-0.2-4.2-2.7-4.3-4.1c0-1.5,2.5-4,4.1-4.3
	C414.4,299.6,416.3,301.8,419.5,303.9z"/>
<path class="st0" d="M694.3,291.2c2.1,3.2,4.3,5,4.1,6.6c-0.2,1.6-2.8,4.2-4.3,4.1c-1.5,0-4-2.6-4.1-4.3
	C689.8,296.1,692.1,294.3,694.3,291.2z"/>
<path class="st0" d="M952,201.9c-2.3-3-4.6-4.8-4.5-6.3c0.1-1.6,2.5-4.3,4-4.4c1.5-0.1,4.1,2.4,4.4,4
	C956.2,196.8,954.1,198.7,952,201.9z"/>
<path class="st0" d="M902.5,127.9c-3,2.3-4.8,4.6-6.3,4.5c-1.6-0.1-4.3-2.6-4.4-4c-0.1-1.5,2.4-4.1,4-4.4
	C897.3,123.7,899.3,125.8,902.5,127.9z"/>
<path class="st0" d="M273.6,197.1c-3,2.3-4.8,4.6-6.3,4.5c-1.7-0.1-4.3-2.5-4.4-4c-0.1-1.5,2.4-4.1,4-4.4
	C268.4,192.9,270.4,195.1,273.6,197.1z"/>
<path class="st0" d="M246,507c-2.9,1.7-4.6,3.6-6.2,3.5c-1.3-0.1-3.7-2.9-3.4-3.8c0.5-1.6,2.6-3.5,4.2-3.8
	C241.8,502.8,243.4,504.9,246,507z"/>
<path class="st0" d="M217,474.1c-3,1.7-4.7,3.5-6.3,3.3c-1.3-0.1-3.6-3-3.3-3.9c0.5-1.6,2.7-3.4,4.3-3.6
	C212.9,469.7,214.5,472,217,474.1z"/>
<path class="st0" d="M974.7,285.4c1.9,2.9,4.1,4.9,3.7,6.1c-0.5,1.7-2.8,2.9-4.4,4.3c-1.3-1.5-3.5-3-3.6-4.5
	C970.5,289.8,972.6,288.2,974.7,285.4z"/>
<path class="st0" d="M357.7,299.2c-2.9,1.7-4.7,3.5-6.3,3.4c-1.3-0.1-3.7-3-3.4-3.9c0.5-1.6,2.6-3.5,4.3-3.7
	C353.6,294.9,355.1,297.1,357.7,299.2z"/>
<path class="st0" d="M333.9,204c-2.9,1.7-4.6,3.6-6.2,3.5c-1.3-0.1-3.7-2.9-3.4-3.8c0.5-1.6,2.6-3.5,4.2-3.7
	C329.7,199.7,331.3,201.9,333.9,204z"/>
<path class="st0" d="M24.9,120.8c-1.9-2.9-4.1-4.8-3.8-6c0.4-1.7,2.8-2.9,4.3-4.3c1.3,1.5,3.5,2.9,3.6,4.5
	C29.1,116.4,26.9,118,24.9,120.8z"/>
<path class="st0" d="M1008.5,256.7c2,2.8,3.9,4.4,3.9,5.9c0,1.3-2.3,2.7-3.6,4c-1.4-1.4-3.6-2.6-4-4.2
	C1004.6,261.3,1006.6,259.5,1008.5,256.7z"/>
<path class="st0" d="M155,468.3c-2.8,1.9-4.4,3.9-6,3.9c-1.3,0-2.7-2.3-4-3.6c1.4-1.4,2.6-3.6,4.2-4
	C150.5,464.4,152.2,466.5,155,468.3z"/>
<path class="st0" d="M183.9,502c-3,1.7-4.7,3.5-6.3,3.3c-1.3-0.1-3.6-3-3.3-3.9c0.5-1.6,2.7-3.4,4.3-3.6
	C179.8,497.6,181.4,499.8,183.9,502z"/>
<path class="st0" d="M879.1,320.2c-1.8-2.9-3.7-4.6-3.6-6.1c0.1-1.3,2.8-3.8,3.8-3.5c1.6,0.5,3.6,2.5,3.8,4.1
	C883.3,315.9,881.1,317.5,879.1,320.2z"/>
<path class="st0" d="M0.5,23.6c-0.1-2-0.5-3.6-0.2-5c0.3-1.7,1.2-3.3,1.8-5c1.6,1.1,4.1,1.9,4.4,3.3c0.4,1.6-0.8,3.9-1.9,5.6
	C4.1,23.3,2.2,23.2,0.5,23.6z"/>
<path class="st0" d="M941.7,313.7c1.7,2.9,3.6,4.7,3.4,6.2c-0.1,1.3-2.9,3.7-3.9,3.4c-1.6-0.5-3.5-2.6-3.7-4.2
	C937.4,317.8,939.7,316.2,941.7,313.7z"/>
<path class="st0" d="M817.2,302.2c1.9,2.8,3.9,4.4,3.9,6c0,1.3-2.4,2.6-3.7,3.9c-1.4-1.4-3.6-2.6-3.9-4.2
	C813.2,306.7,815.3,305,817.2,302.2z"/>
<path class="st0" d="M385.9,331.6c-2.8,2.1-4.5,4.5-5.8,4.2c-1.7-0.3-3.1-2.6-4.6-4c1.4-1.4,2.7-3.7,4.2-3.9
	C381.2,327.8,383,329.8,385.9,331.6z"/>
<path class="st0" d="M396.3,209c-2.9,1.9-4.8,4.1-6.1,3.8c-1.7-0.4-2.9-2.8-4.3-4.4c1.5-1.3,3-3.5,4.5-3.6
	C391.9,204.7,393.4,206.9,396.3,209z"/>
<path class="st0" d="M88.4,456.4c1.7,2.9,3.6,4.7,3.4,6.2c-0.1,1.3-2.9,3.7-3.9,3.4c-1.6-0.5-3.5-2.6-3.7-4.2
	C84.1,460.6,86.4,459,88.4,456.4z"/>
<path class="st0" d="M301,507c1.9,2.8,3.9,4.4,3.9,5.9c0,1.3-2.3,2.7-3.6,4c-1.4-1.4-3.6-2.6-4-4.2C297.1,511.6,299.1,509.8,301,507
	z"/>
<path class="st0" d="M199.8,260.2c-1.9-2.8-3.8-4.4-3.8-6c0-1.3,2.7-3.8,3.6-3.6c1.6,0.4,3.6,2.4,4,4
	C203.8,255.8,201.7,257.5,199.8,260.2z"/>
<path class="st0" d="M553.6,135.3c-2-2.8-4.3-4.6-4-5.9c0.4-1.7,2.7-3,4.1-4.5c1.3,1.4,3.6,2.8,3.8,4.3
	C557.7,130.7,555.6,132.4,553.6,135.3z"/>
<path class="st0" d="M369.1,518.2c-2.9,1.8-4.5,3.8-6.1,3.7c-1.3-0.1-3.8-2.8-3.6-3.7c0.4-1.6,2.5-3.6,4.1-3.9
	C364.7,514.1,366.4,516.2,369.1,518.2z"/>
<path class="st0" d="M991.3,99.5c1.8,2.9,3.7,4.6,3.6,6.2c-0.1,1.3-2.9,3.7-3.8,3.5c-1.6-0.5-3.5-2.5-3.8-4.2
	C987.1,103.7,989.2,102.1,991.3,99.5z"/>
<path class="st0" d="M694.9,359.8c-2.8,1.9-4.4,3.9-6,3.9c-1.3,0-2.7-2.3-4-3.6c1.4-1.4,2.6-3.6,4.2-4
	C690.4,355.8,692.1,357.8,694.9,359.8z"/>
<path class="st0" d="M1155.1,431.7c-2.9,1.7-4.7,3.5-6.3,3.3c-1.3-0.1-3.6-3-3.3-3.9c0.5-1.6,2.7-3.4,4.3-3.6
	C1151.1,427.3,1152.6,429.5,1155.1,431.7z"/>
<path class="st0" d="M1222.4,374.4c-2.9,1.8-4.5,3.8-6.1,3.7c-1.4-0.1-3.8-2.8-3.6-3.7c0.4-1.6,2.4-3.6,4.1-3.9
	C1218.1,370.3,1219.7,372.4,1222.4,374.4z"/>
<path class="st0" d="M1284.4,380.6c-2.8,1.9-4.4,3.8-6,3.8c-1.3,0-3.9-2.7-3.6-3.6c0.4-1.6,2.4-3.6,4-4
	C1280.1,376.5,1281.7,378.6,1284.4,380.6z"/>
<path class="st0" d="M88,524.5c-2.9,1.9-4.8,4.1-6.1,3.8c-1.7-0.4-2.9-2.8-4.3-4.3c1.5-1.3,2.9-3.5,4.5-3.6
	C83.6,520.3,85.2,522.4,88,524.5z"/>
<path class="st0" d="M1310.7,15c-1.9-2.8-3.8-4.4-3.8-6c0-1.3,2.7-3.9,3.6-3.6c1.7,0.4,3.6,2.4,4,4
	C1314.7,10.6,1312.6,12.3,1310.7,15z"/>
<path class="st0" d="M380.5,394.4c-2.9,1.7-4.7,3.5-6.3,3.4c-1.3-0.1-3.7-3-3.4-3.9c0.5-1.6,2.6-3.5,4.3-3.7
	C376.3,390.1,377.9,392.3,380.5,394.4z"/>
<path class="st0" d="M986.8,229.2c-2.8,2.1-4.5,4.5-5.8,4.2c-1.7-0.3-3.1-2.6-4.6-4c1.4-1.4,2.7-3.7,4.2-3.9
	C982.1,225.3,983.9,227.4,986.8,229.2z"/>
<path class="st0" d="M783-0.2c-1.9-2.9-4.1-4.8-3.8-6.1c0.4-1.7,2.8-2.9,4.3-4.3c1.3,1.5,3.5,2.9,3.6,4.5C787.2-4.6,785.1-3,783-0.2
	z"/>
<path class="st0" d="M1183.8,409.4c-2.2-2.8-4.5-4.5-4.3-5.7c0.3-1.7,2.6-3.1,4-4.6c1.4,1.4,3.7,2.6,3.9,4.2
	C1187.6,404.7,1185.6,406.5,1183.8,409.4z"/>
<path class="st0" d="M1311.3,71.5c-2.9,1.7-4.6,3.6-6.2,3.5c-1.3-0.1-3.7-2.9-3.4-3.8c0.5-1.6,2.6-3.5,4.2-3.8
	C1307.1,67.3,1308.7,69.4,1311.3,71.5z"/>
<path class="st0" d="M170.9,215.4c1.9,2.8,3.8,4.5,3.7,6c0,1.3-2.7,3.8-3.7,3.6c-1.6-0.4-3.6-2.4-3.9-4
	C166.8,219.8,168.9,218.1,170.9,215.4z"/>
<path class="st0" d="M1266.9,222.1c-2.8,1.9-4.4,3.9-6,3.9c-1.3,0-2.6-2.3-4-3.6c1.4-1.4,2.6-3.6,4.2-4
	C1262.3,218.2,1264.1,220.3,1266.9,222.1z"/>
<path class="st0" d="M464.6,427.4c1.9,2.8,3.8,4.5,3.7,6c0,1.3-2.7,3.8-3.7,3.6c-1.6-0.4-3.6-2.4-3.9-4
	C460.6,431.8,462.7,430.1,464.6,427.4z"/>
<path class="st0" d="M334.6,423c2.8-1.9,4.4-3.9,6-3.9c1.3,0,2.6,2.4,3.9,3.7c-1.4,1.4-2.6,3.6-4.2,3.9
	C339.1,427,337.4,424.9,334.6,423z"/>
<path class="st0" d="M1439.7,230.9c0,5.5,0,10.4,0,15.4C1434.7,241.6,1434.6,236.7,1439.7,230.9z"/>
<path class="st0" d="M1009.7,544.1c2.2-1.7,3.6-3.8,4.7-3.6c1.5,0.2,2.8,2.2,4.1,3.4c-1.3,1.3-2.5,3.3-4,3.6
	C1013.5,547.7,1011.9,545.8,1009.7,544.1z"/>
<path class="st0" d="M1373.9,418.4c-2.4,2-3.8,4-4.9,3.9c-1.5-0.2-3.4-1.9-3.9-3.4c-0.3-0.8,1.9-3.5,3.1-3.6
	C1369.7,415.2,1371.3,416.9,1373.9,418.4z"/>
<path class="st0" d="M1126.5,397c-2.2,1.7-3.6,3.8-4.7,3.7c-1.5-0.2-2.8-2.2-4.1-3.4c1.3-1.3,2.5-3.3,4-3.6
	C1122.7,393.4,1124.2,395.3,1126.5,397z"/>
<path class="st0" d="M1346,385.3c-2.3,2-3.8,4.1-4.9,3.9c-1.5-0.2-2.8-2.1-4.2-3.3c1.1-1.3,2.1-3.5,3.4-3.7
	C1341.7,382.1,1343.3,383.8,1346,385.3z"/>
<path class="st0" d="M1150.4,369.3c2.2-1.7,3.6-3.8,4.7-3.6c1.5,0.2,2.8,2.2,4.1,3.4c-1.3,1.3-2.4,3.3-3.9,3.6
	C1154.2,372.9,1152.6,370.9,1150.4,369.3z"/>
<path class="st0" d="M1312.8,346.2c1.7,2.6,3.4,4.1,3.4,5.6c0,1.2-2.5,3.5-3.4,3.3c-1.5-0.4-3.3-2.2-3.6-3.8
	C1309,350.2,1311,348.6,1312.8,346.2z"/>
<path class="st0" d="M307.6,445.5c1.6,2.6,3.3,4.2,3.2,5.7c-0.1,1.2-2.7,3.4-3.5,3.2c-1.5-0.5-3.3-2.4-3.5-3.9
	C303.6,449.4,305.7,447.9,307.6,445.5z"/>
<path class="st0" d="M1267.4,565.2c-2.4,2-3.8,4.1-4.9,4c-1.5-0.2-2.8-2.1-4.2-3.3c1.1-1.3,2.1-3.6,3.3-3.7
	C1263.1,562.1,1264.7,563.7,1267.4,565.2z"/>
<path class="st0" d="M1289.1,318.9c-2.7,1.5-4.3,3.2-5.8,3.1c-1.2-0.1-2.2-2.4-3.4-3.7c1.4-1.2,2.7-3.1,4.2-3.3
	C1285.3,314.8,1286.8,316.9,1289.1,318.9z"/>
<path class="st0" d="M497.9,467c-2.4,2-3.8,4-4.9,3.9c-1.5-0.2-3.4-1.9-3.9-3.4c-0.3-0.8,1.9-3.5,3.1-3.6
	C493.6,463.8,495.2,465.5,497.9,467z"/>
<path class="st0" d="M761.4,302.8c-2.2,1.7-3.6,3.8-4.7,3.6c-1.5-0.2-2.8-2.2-4.1-3.4c1.3-1.3,2.5-3.3,4-3.6
	C757.6,299.2,759.1,301.2,761.4,302.8z"/>
<path class="st0" d="M1261.2,284.7c-2.6,1.5-4.3,3.2-5.7,3.1c-1.2-0.1-3.4-2.7-3.1-3.6c0.5-1.5,2.4-3.2,3.9-3.4
	C1257.4,280.7,1258.8,282.8,1261.2,284.7z"/>
<path class="st0" d="M390.3,271c-2.6,1.7-4.1,3.4-5.6,3.4c-1.2,0-3.5-2.6-3.3-3.4c0.4-1.5,2.3-3.3,3.7-3.6
	C386.3,267.1,387.8,269.2,390.3,271z"/>
<path class="st0" d="M266.2,259.6c-2.6,1.7-4.1,3.5-5.6,3.4c-1.2,0-3.5-2.6-3.3-3.4c0.4-1.5,2.2-3.3,3.8-3.6
	C262.2,255.8,263.7,257.8,266.2,259.6z"/>
<path class="st0" d="M1144.3,487.9c1.6,2.6,3.3,4.2,3.3,5.6c-0.1,1.2-2.6,3.5-3.5,3.2c-1.5-0.4-3.3-2.3-3.6-3.8
	C1140.4,491.9,1142.4,490.4,1144.3,487.9z"/>
<path class="st0" d="M116.5,491c1.5,2.7,3.1,4.4,2.9,5.8c-0.1,1.2-2.4,2.2-3.7,3.3c-1.1-1.4-3.1-2.8-3.2-4.3
	C112.4,494.7,114.5,493.3,116.5,491z"/>
<path class="st0" d="M1071.6,606.1c1.7,2.2,3.8,3.6,3.6,4.7c-0.2,1.5-2.2,2.8-3.4,4.1c-1.3-1.3-3.3-2.5-3.6-4
	C1068,609.9,1069.9,608.3,1071.6,606.1z"/>
<path class="st0" d="M520,495.2c2,2.4,4.1,3.8,3.9,4.9c-0.2,1.5-2.1,2.8-3.3,4.2c-1.3-1.1-3.6-2.1-3.7-3.3
	C516.8,499.5,518.5,497.9,520,495.2z"/>
<path class="st0" d="M1272.6,161.5c-2.6,1.6-4.2,3.3-5.6,3.3c-1.2-0.1-3.5-2.6-3.2-3.5c0.4-1.5,2.3-3.3,3.8-3.5
	C1268.7,157.5,1270.1,159.6,1272.6,161.5z"/>
<path class="st0" d="M486.9,523.1c2,2.4,4,3.8,3.9,4.9c-0.2,1.5-1.9,3.4-3.4,3.9c-0.8,0.3-3.5-1.9-3.6-3.1
	C483.7,527.4,485.4,525.7,486.9,523.1z"/>
<path class="st0" d="M1172.4,531.5c-1.8-2.1-3.9-3.5-3.8-4.6c0.2-1.5,2.1-2.9,3.2-4.3c1.3,1.2,3.4,2.3,3.7,3.8
	C1175.8,527.5,1173.9,529.2,1172.4,531.5z"/>
<path class="st0" d="M958.5,129c1.5,2.7,3.1,4.4,2.9,5.8c-0.1,1.2-2.4,2.2-3.7,3.3c-1.1-1.4-3.1-2.8-3.2-4.3
	C954.4,132.7,956.5,131.3,958.5,129z"/>
<path class="st0" d="M992.3,510c-2.6,1.6-4.1,3.4-5.6,3.3c-1.2-0.1-3.5-2.6-3.3-3.4c0.4-1.5,2.3-3.3,3.8-3.6
	C988.3,506.1,989.8,508.1,992.3,510z"/>
<path class="st0" d="M1139.1,616.9c-2.7,1.5-4.3,3.2-5.8,3c-1.2-0.1-2.2-2.4-3.3-3.7c1.4-1.2,2.7-3.1,4.2-3.3
	C1135.4,612.8,1136.8,614.9,1139.1,616.9z"/>
<path class="st0" d="M1058.5,112.1c-2.7,1.5-4.4,3.1-5.8,2.9c-1.2-0.1-2.2-2.4-3.3-3.7c1.4-1.1,2.7-3.1,4.3-3.2
	C1054.8,108,1056.2,110.1,1058.5,112.1z"/>
<path class="st0" d="M430.6,523.6c-2.6,1.6-4.2,3.3-5.7,3.2c-1.2-0.1-3.4-2.7-3.2-3.5c0.5-1.5,2.4-3.3,3.9-3.5
	C426.8,519.6,428.3,521.7,430.6,523.6z"/>
<path class="st0" d="M462.6,495.5c-1.9,1.3-3.3,2.9-4.1,2.6c-1.2-0.4-2.1-2.1-3.1-3.2c1.1-0.9,2.1-2.4,3.3-2.5
	C459.7,492.5,460.8,494.1,462.6,495.5z"/>
<path class="st0" d="M58.2,491.3c-1.9,1.4-3.2,3-4,2.8c-1.2-0.4-2.1-2-3.2-3.1c1.1-0.9,2.1-2.5,3.2-2.6
	C55.2,488.3,56.3,489.9,58.2,491.3z"/>
<path class="st0" d="M1430.1,486.2c-2.1,1.4-3.6,3.2-4.5,2.9c-1.3-0.4-2.2-2.2-3.4-3.4c1.2-1,2.3-2.7,3.5-2.7
	C1426.8,482.9,1428.1,484.6,1430.1,486.2z"/>
<path class="st0" d="M273.5,474.6c1.2,1.9,2.8,3.4,2.6,4.2c-0.4,1.2-2.1,2-3.3,3c-0.9-1.1-2.4-2.2-2.4-3.3
	C270.4,477.5,272,476.4,273.5,474.6z"/>
<path class="st0" d="M958.7,481.3c-1.3-2.2-3-3.7-2.7-4.6c0.4-1.3,2.3-2.2,3.5-3.2c0.9,1.2,2.6,2.4,2.6,3.6
	C962,478.2,960.3,479.4,958.7,481.3z"/>
<path class="st0" d="M1120.8,459.1c-2.1,1.5-3.5,3.3-4.4,3.1c-1.3-0.3-2.3-2.1-3.5-3.3c1.1-1,2.2-2.8,3.4-2.9
	C1117.4,456,1118.7,457.6,1120.8,459.1z"/>
<path class="st0" d="M30.6,457.1c-2.1,1.5-3.5,3.3-4.4,3c-1.3-0.4-2.3-2.1-3.4-3.3c1.1-1,2.3-2.7,3.4-2.8
	C27.3,453.9,28.6,455.6,30.6,457.1z"/>
<path class="st0" d="M1396.8,457.5c-1.6-1.9-3.5-3.3-3.4-4.2c0.3-1.4,2-2.5,3.1-3.6c1.1,1.1,2.9,2,3,3.2
	C1399.7,454,1398.2,455.3,1396.8,457.5z"/>
<path class="st0" d="M934.2,442.7c-1.9,1.3-3.3,3-4.1,2.7c-1.2-0.4-2.1-2-3.1-3.2c1.1-0.9,2.1-2.5,3.2-2.5
	C931.3,439.7,932.4,441.3,934.2,442.7z"/>
<path class="st0" d="M402.5,432.7c-1.5-2.1-3.3-3.5-3.1-4.4c0.4-1.3,2.1-2.3,3.3-3.4c1,1.1,2.7,2.2,2.8,3.4
	C405.7,429.4,404,430.7,402.5,432.7z"/>
<path class="st0" d="M1088.5,430.2c-1.5-1.8-3.2-3.1-3.1-3.9c0.3-1.3,1.9-2.3,2.9-3.3c1,1,2.6,1.9,2.7,3
	C1091.2,427.1,1089.8,428.3,1088.5,430.2z"/>
<path class="st0" d="M906.3,409.2c-1.7,1.5-3,3.3-3.8,3.1c-1.3-0.3-2.3-1.8-3.4-2.9c1-1,1.9-2.7,3-2.8
	C903.1,406.5,904.3,407.9,906.3,409.2z"/>
<path class="st0" d="M1059.5,396.1c-1.5-1.8-3.2-3.1-3.1-3.9c0.3-1.3,1.9-2.2,2.9-3.3c1,1,2.6,1.9,2.7,3
	C1062.2,392.9,1060.8,394.2,1059.5,396.1z"/>
<path class="st0" d="M816.7,370c-2,1.6-3.4,3.4-4.3,3.2c-1.3-0.3-2.4-2-3.6-3.2c1.1-1,2.1-2.8,3.3-2.9
	C813.3,367,814.6,368.6,816.7,370z"/>
<path class="st0" d="M750.1,360.4c1.5,2.1,3.3,3.5,3,4.4c-0.4,1.3-2.1,2.3-3.3,3.4c-1-1.1-2.7-2.3-2.8-3.4
	C746.9,363.7,748.6,362.5,750.1,360.4z"/>
<path class="st0" d="M1098.1,363.8c-2,1.6-3.4,3.4-4.3,3.2c-1.3-0.3-2.4-2-3.6-3.2c1.1-1,2.1-2.8,3.3-2.9
	C1094.6,360.8,1095.9,362.4,1098.1,363.8z"/>
<path class="st0" d="M1440,363.3c-1.9,1.2-3.4,2.8-4.2,2.5c-1.2-0.4-2-2.1-3-3.3c1.1-0.8,2.2-2.4,3.4-2.4
	C1437.2,360.1,1438.3,361.8,1440,363.3z"/>
<path class="st0" d="M1201.2,556.3c1.3,1.9,2.9,3.3,2.6,4.1c-0.4,1.2-2.1,2.1-3.2,3.1c-0.9-1.1-2.4-2.2-2.4-3.3
	C1198.2,559.2,1199.8,558.1,1201.2,556.3z"/>
<path class="st0" d="M1035.9,359c-2.1,1.4-3.7,3.1-4.6,2.8c-1.3-0.4-2.2-2.2-3.3-3.5c1.2-0.9,2.3-2.6,3.6-2.6
	C1032.8,355.7,1034,357.4,1035.9,359z"/>
<path class="st0" d="M1374.1,353.2c1.3,2.2,3,3.7,2.7,4.6c-0.4,1.3-2.3,2.1-3.6,3.2c-0.9-1.2-2.5-2.4-2.5-3.6
	C1370.7,356.2,1372.4,355.1,1374.1,353.2z"/>
<path class="st0" d="M969.6,356.8c-1.5-1.7-3.3-3-3.1-3.8c0.3-1.3,1.8-2.3,2.9-3.4c1,1,2.7,1.9,2.8,3
	C972.3,353.6,970.9,354.8,969.6,356.8z"/>
<path class="st0" d="M907.5,351.6c-1.5-1.8-3.2-3.1-3.1-3.9c0.3-1.3,1.9-2.3,2.9-3.3c1,1,2.6,1.9,2.7,3
	C910.2,348.5,908.8,349.7,907.5,351.6z"/>
<path class="st0" d="M1255.2,346.7c-2.2,1.3-3.7,3-4.6,2.7c-1.3-0.4-2.2-2.3-3.2-3.5c1.2-0.9,2.4-2.6,3.6-2.6
	C1252.1,343.3,1253.3,345.1,1255.2,346.7z"/>
<path class="st0" d="M850.4,342.5c-1.9,1.2-3.4,2.8-4.2,2.6c-1.2-0.4-2-2.1-3-3.3c1.1-0.9,2.2-2.4,3.3-2.4
	C847.6,339.4,848.6,341,850.4,342.5z"/>
<path class="st0" d="M1188.9,345.8c-1.7-1.9-3.5-3.3-3.4-4.2c0.3-1.3,2-2.5,3.1-3.6c1.1,1.1,2.8,2,3,3.2
	C1191.8,342.3,1190.3,343.7,1188.9,345.8z"/>
<path class="st0" d="M784.5,341.3c-1.5-1.7-3.3-3-3.1-3.8c0.3-1.3,1.8-2.3,2.9-3.4c1,1,2.7,1.9,2.8,3
	C787.2,338.1,785.7,339.3,784.5,341.3z"/>
<path class="st0" d="M1048,577.2c-1.9,1.3-3.3,2.9-4.1,2.6c-1.2-0.4-2.1-2.1-3.1-3.2c1.1-0.9,2.2-2.4,3.3-2.5
	C1045.1,574.2,1046.2,575.8,1048,577.2z"/>
<path class="st0" d="M1131.1,336.3c-2.2,1.4-3.7,3.1-4.6,2.8c-1.3-0.4-2.2-2.3-3.3-3.5c1.2-0.9,2.3-2.6,3.6-2.7
	C1127.9,333,1129.1,334.7,1131.1,336.3z"/>
<path class="st0" d="M722.2,326.3c1.5,2.1,3.3,3.5,3,4.4c-0.4,1.3-2.1,2.3-3.3,3.4c-1-1.1-2.7-2.2-2.8-3.4
	C719,329.6,720.6,328.3,722.2,326.3z"/>
<path class="st0" d="M1069.1,329.6c-2,1.6-3.4,3.4-4.3,3.2c-1.3-0.3-2.4-2-3.6-3.2c1.1-1,2.1-2.8,3.3-2.9
	C1065.6,326.6,1066.9,328.2,1069.1,329.6z"/>
<path class="st0" d="M1008,324.6c-2,1.5-3.5,3.3-4.4,3.1c-1.3-0.3-2.3-2.1-3.5-3.3c1.1-1,2.2-2.8,3.4-2.9
	C1004.7,321.5,1006,323.1,1008,324.6z"/>
<path class="st0" d="M1218.5,313.3c1.9-1.4,3.2-3.1,4-2.8c1.2,0.3,2.1,2,3.2,3.1c-1,0.9-2,2.5-3.2,2.6
	C1221.5,316.2,1220.4,314.7,1218.5,313.3z"/>
<path class="st0" d="M1164.9,306.8c-1.8,1.5-3.1,3.2-3.9,3.1c-1.3-0.3-2.2-1.9-3.4-2.9c1-1,1.9-2.6,3-2.7
	C1161.7,304.1,1163,305.6,1164.9,306.8z"/>
<path class="st0" d="M1098.6,297.7c1.4,1.8,3.1,3.2,2.9,4c-0.3,1.2-1.9,2.2-3,3.3c-0.9-1-2.5-2-2.6-3.1
	C1095.7,300.8,1097.2,299.6,1098.6,297.7z"/>
<path class="st0" d="M1041.1,297.1c-2.2,1.3-3.7,3-4.6,2.7c-1.3-0.4-2.2-2.3-3.2-3.5c1.2-0.9,2.4-2.6,3.6-2.6
	C1038,293.7,1039.2,295.4,1041.1,297.1z"/>
<path class="st0" d="M327.4,264.4c-1.9,1.6-3.3,3.5-4.2,3.4c-1.3-0.3-2.5-2-3.6-3.1c1-1.1,2-2.9,3.2-3
	C323.9,261.5,325.3,263,327.4,264.4z"/>
<path class="st0" d="M1232.1,251.1c-1.8,1.4-3.1,3.2-3.9,3c-1.2-0.3-2.2-1.9-3.3-3c1-0.9,2-2.6,3.1-2.7
	C1229,248.3,1230.2,249.8,1232.1,251.1z"/>
<path class="st0" d="M357,241.3c-1.5-2.1-3.3-3.5-3.1-4.4c0.4-1.3,2.1-2.3,3.3-3.4c1,1.1,2.7,2.2,2.8,3.4
	C360.1,238,358.5,239.3,357,241.3z"/>
<path class="st0" d="M1045.9,234.8c-1.9,1.3-3.3,3-4.1,2.7c-1.2-0.4-2.1-2-3.1-3.2c1.1-0.9,2.1-2.5,3.2-2.5
	C1043,231.8,1044.1,233.3,1045.9,234.8z"/>
<path class="st0" d="M294.8,227c1.6,2,3.4,3.4,3.2,4.3c-0.3,1.3-2,2.4-3.2,3.6c-1-1.1-2.8-2.1-2.9-3.3
	C291.8,230.4,293.3,229.1,294.8,227z"/>
<path class="st0" d="M233.1,231c-1.6-2-3.4-3.4-3.3-4.3c0.3-1.3,2-2.4,3.2-3.6c1,1.1,2.8,2.1,2.9,3.3
	C236.1,227.5,234.5,228.9,233.1,231z"/>
<path class="st0" d="M25,519.4c-1.9,1.2-3.4,2.8-4.2,2.6c-1.2-0.4-2-2.1-3-3.3c1.1-0.9,2.2-2.4,3.3-2.4
	C22.2,516.3,23.3,517.9,25,519.4z"/>
<path class="st0" d="M1018.4,201.3c-2,1.6-3.3,3.5-4.2,3.4c-1.3-0.3-2.5-2-3.6-3.1c1.1-1.1,2-2.9,3.2-3
	C1014.9,198.4,1016.2,199.9,1018.4,201.3z"/>
<path class="st0" d="M1232.9,193.7c-1.4-2.1-3.1-3.7-2.8-4.5c0.4-1.3,2.2-2.2,3.5-3.3c0.9,1.2,2.6,2.4,2.7,3.6
	C1236.2,190.6,1234.5,191.8,1232.9,193.7z"/>
<path class="st0" d="M985.8,162.8c1.5,2,3.4,3.5,3.1,4.4c-0.3,1.3-2.1,2.4-3.3,3.5c-1-1.1-2.8-2.1-2.9-3.4
	C982.7,166.2,984.3,164.9,985.8,162.8z"/>
<path class="st0" d="M1238.2,131.3c-1.3-1.9-3-3.3-2.7-4.1c0.4-1.2,2.1-2.1,3.2-3.1c0.9,1.1,2.4,2.1,2.5,3.2
	C1241.1,128.4,1239.6,129.5,1238.2,131.3z"/>
<path class="st0" d="M1115.4,112.6c1.2,1.9,2.8,3.4,2.6,4.2c-0.4,1.2-2.1,2-3.3,3c-0.9-1.1-2.4-2.2-2.4-3.3
	S1113.9,114.3,1115.4,112.6z"/>
<path class="st0" d="M1277,99.5c-2.2,1.3-3.7,3-4.6,2.7c-1.3-0.4-2.2-2.3-3.2-3.6c1.2-0.9,2.4-2.6,3.6-2.6
	C1273.9,96.1,1275,97.9,1277,99.5z"/>
<path class="st0" d="M1214.9,94.3c-2.2,1.3-3.7,3-4.6,2.7c-1.3-0.4-2.2-2.3-3.2-3.5c1.2-0.9,2.4-2.6,3.6-2.6
	C1211.8,90.9,1212.9,92.6,1214.9,94.3z"/>
<path class="st0" d="M1243.2,69.6c-1.4-2.1-3.1-3.7-2.8-4.5c0.4-1.3,2.2-2.2,3.5-3.3c0.9,1.2,2.6,2.4,2.7,3.6
	C1246.5,66.4,1244.8,67.6,1243.2,69.6z"/>
<path class="st0" d="M1277.4,41.3c-1.3-1.9-2.9-3.3-2.7-4.1c0.4-1.2,2-2.1,3.2-3.1c0.9,1.1,2.4,2.1,2.5,3.2
	C1280.4,38.4,1278.9,39.5,1277.4,41.3z"/>
<path class="st0" d="M749.1,18c1.5,2.1,3.3,3.5,3,4.4c-0.4,1.3-2.2,2.3-3.3,3.4c-1-1.1-2.7-2.2-2.8-3.4
	C745.9,21.3,747.5,20.1,749.1,18z"/>
<path class="st0" d="M1254.2,4.3c-2.2,1.3-3.7,3-4.6,2.7c-1.3-0.4-2.1-2.3-3.2-3.5c1.2-0.9,2.4-2.6,3.6-2.6
	C1251.1,1,1252.2,2.7,1254.2,4.3z"/>
<path class="st0" d="M429.5,465.1c-1.5-2.1-3.3-3.5-3.1-4.4c0.4-1.3,2.1-2.3,3.3-3.4c1,1.1,2.7,2.2,2.8,3.4
	C432.6,461.8,431,463.1,429.5,465.1z"/>
<path class="st0" d="M375.2,456.7c-2.6,1.6-4.2,3.3-5.7,3.2c-1.2-0.1-3.4-2.7-3.2-3.5c0.5-1.5,2.4-3.3,3.9-3.5
	C371.4,452.7,372.8,454.8,375.2,456.7z"/>
<path class="st0" d="M403.9,488.7c-2.6,1.6-4.2,3.3-5.7,3.2c-1.2-0.1-3.4-2.7-3.2-3.5c0.5-1.5,2.4-3.3,3.9-3.5
	C400,484.7,401.5,486.8,403.9,488.7z"/>
<path class="st0" d="M338.2,486.9c-1.5-2.1-3.3-3.5-3.1-4.4c0.4-1.3,2.1-2.3,3.3-3.4c1,1.1,2.7,2.2,2.8,3.4
	C341.3,483.5,339.7,484.8,338.2,486.9z"/>
<path class="st0" d="M1103.5,510c1.6,2.6,3.3,4.2,3.3,5.6c-0.1,1.2-2.6,3.5-3.5,3.2c-1.5-0.4-3.3-2.3-3.6-3.8
	C1099.6,513.9,1101.6,512.4,1103.5,510z"/>
<path class="st0" d="M1131.6,553.6c-1.8-2.1-3.9-3.5-3.8-4.6c0.2-1.5,2.1-2.9,3.2-4.3c1.3,1.2,3.4,2.3,3.7,3.8
	C1135.1,549.6,1133.1,551.2,1131.6,553.6z"/>
<path class="st0" d="M1080,481.1c-2.1,1.5-3.5,3.3-4.4,3.1c-1.3-0.3-2.3-2.1-3.5-3.3c1.1-1,2.2-2.8,3.4-2.9
	C1076.6,478.1,1077.9,479.7,1080,481.1z"/>
<path class="st0" d="M1047.7,452.3c-1.5-1.8-3.2-3.1-3.1-3.9c0.3-1.3,1.9-2.3,2.9-3.3c1,1,2.6,1.9,2.7,3
	C1050.4,449.2,1049,450.4,1047.7,452.3z"/>
<path class="st0" d="M1018.7,418.2c-1.5-1.8-3.2-3.1-3.1-3.9c0.3-1.3,1.9-2.2,2.9-3.3c1,1,2.6,1.9,2.7,3
	C1021.5,415,1020,416.2,1018.7,418.2z"/>
<path class="st0" d="M1160.4,578.4c1.3,1.9,2.9,3.3,2.6,4.1c-0.4,1.2-2.1,2.1-3.2,3.1c-0.9-1.1-2.4-2.2-2.4-3.3
	C1157.4,581.3,1159,580.2,1160.4,578.4z"/>
<path class="st0" d="M995.2,381.1c-2.1,1.4-3.7,3.1-4.6,2.8c-1.3-0.4-2.2-2.2-3.3-3.5c1.2-0.9,2.3-2.6,3.6-2.6
	C992,377.8,993.2,379.5,995.2,381.1z"/>
<path class="st0" d="M1049.1,511.2c1.6,2.6,3.3,4.2,3.3,5.6c-0.1,1.2-2.6,3.5-3.5,3.2c-1.5-0.4-3.3-2.3-3.6-3.8
	C1045.2,515.2,1047.2,513.7,1049.1,511.2z"/>
<path class="st0" d="M1077.2,554.8c-1.8-2.1-3.9-3.5-3.8-4.6c0.2-1.5,2.1-2.9,3.2-4.3c1.3,1.2,3.4,2.3,3.7,3.8
	C1080.6,550.8,1078.7,552.5,1077.2,554.8z"/>
<path class="st0" d="M1025.6,482.4c-2.1,1.5-3.5,3.3-4.4,3.1c-1.3-0.3-2.3-2.1-3.5-3.3c1.1-1,2.2-2.8,3.4-2.9
	C1022.2,479.3,1023.5,480.9,1025.6,482.4z"/>
<path class="st0" d="M993.3,453.5c-1.5-1.8-3.2-3.1-3.1-3.9c0.3-1.3,1.9-2.3,2.9-3.3c1,1,2.6,1.9,2.7,3
	C996,450.4,994.6,451.6,993.3,453.5z"/>
<path class="st0" d="M964.3,419.4c-1.5-1.8-3.2-3.1-3.1-3.9c0.3-1.3,1.9-2.2,2.9-3.3c1,1,2.6,1.9,2.7,3
	C967,416.2,965.6,417.5,964.3,419.4z"/>
<path class="st0" d="M1106,579.6c1.3,1.9,2.9,3.3,2.6,4.1c-0.4,1.2-2.1,2.1-3.2,3.1c-0.9-1.1-2.4-2.2-2.4-3.3
	C1103,582.5,1104.5,581.4,1106,579.6z"/>
<path class="st0" d="M940.7,382.3c-2.1,1.4-3.7,3.1-4.6,2.8c-1.3-0.4-2.2-2.2-3.3-3.5c1.2-0.9,2.3-2.6,3.6-2.6
	C937.6,379,938.8,380.7,940.7,382.3z"/>
<path class="st0" d="M876.5,381c-1.5-1.7-3.3-3-3.1-3.8c0.3-1.3,1.8-2.3,2.9-3.4c1,1,2.7,1.9,2.8,3C879.1,377.8,877.7,379,876.5,381
	z"/>
<path class="st0" d="M1209.4,219.8c-2.7,1.5-4.3,3.2-5.8,3.1c-1.2-0.1-2.2-2.4-3.4-3.7c1.4-1.2,2.7-3.1,4.2-3.3
	C1205.6,215.7,1207,217.8,1209.4,219.8z"/>
<path class="st0" d="M1181.5,185.6c-2.6,1.5-4.3,3.2-5.7,3.1c-1.2-0.1-3.4-2.7-3.1-3.6c0.5-1.5,2.4-3.2,3.9-3.4
	C1177.6,181.6,1179.1,183.7,1181.5,185.6z"/>
<path class="st0" d="M1147.2,151.1c-1.8,1.4-3.1,3.2-3.9,3c-1.2-0.3-2.2-1.9-3.3-3c1-0.9,2-2.6,3.1-2.7
	C1144.1,148.3,1145.3,149.8,1147.2,151.1z"/>
<path class="st0" d="M1205.4,159.9c-1.3-1.9-3-3.3-2.7-4.1c0.4-1.2,2.1-2.1,3.2-3.1c0.9,1.1,2.4,2.1,2.5,3.2
	C1208.4,157,1206.8,158.1,1205.4,159.9z"/>
<path class="st0" d="M1182.1,122.9c-2.2,1.3-3.7,3-4.6,2.7c-1.3-0.4-2.2-2.3-3.2-3.5c1.2-0.9,2.4-2.6,3.6-2.6
	C1179,119.6,1180.2,121.3,1182.1,122.9z"/>
<path class="st0" d="M1073.3,261.6c1.4,1.8,3.1,3.2,2.9,4c-0.3,1.2-1.9,2.2-3,3.3c-0.9-1-2.5-2-2.6-3.1
	C1070.5,264.7,1072,263.5,1073.3,261.6z"/>
<path class="st0" d="M1022.6,135.1c2,2.8,3.9,4.4,3.9,5.9c0,1.3-2.3,2.7-3.6,4c-1.4-1.4-3.6-2.6-4-4.2
	C1018.6,139.7,1020.7,137.9,1022.6,135.1z"/>
<path class="st0" d="M1140.5,275.3c-2.2,1.7-3.6,3.8-4.7,3.7c-1.5-0.2-2.8-2.2-4.1-3.4c1.3-1.3,2.5-3.3,4-3.6
	C1136.8,271.7,1138.3,273.7,1140.5,275.3z"/>
<path class="st0" d="M1112.1,242.2c-2,1.6-3.4,3.4-4.3,3.2c-1.3-0.3-2.4-2-3.6-3.2c1.1-1,2.1-2.8,3.3-2.9
	C1108.7,239.2,1110,240.8,1112.1,242.2z"/>
<path class="st0" d="M1083.2,208c-2,1.6-3.4,3.4-4.3,3.2c-1.3-0.3-2.4-2-3.6-3.2c1.1-1,2.1-2.8,3.3-2.9
	C1079.7,205,1081,206.6,1083.2,208z"/>
<path class="st0" d="M1055.2,175.5c-2.2,1.3-3.7,3-4.6,2.7c-1.3-0.4-2.2-2.3-3.2-3.5c1.2-0.9,2.4-2.6,3.6-2.6
	C1052.1,172.1,1053.3,173.8,1055.2,175.5z"/>
<path class="st0" d="M1083.4,140.5c1.9,2.8,3.9,4.4,3.9,5.9c0,1.3-2.3,2.7-3.6,4c-1.4-1.4-3.6-2.6-4-4.2
	C1079.5,145.1,1081.5,143.3,1083.4,140.5z"/>
<path class="st0" d="M1201.4,280.8c-2.2,1.7-3.6,3.8-4.7,3.7c-1.5-0.2-2.8-2.2-4.1-3.4c1.3-1.3,2.5-3.3,4-3.6
	C1197.6,277.2,1199.2,279.1,1201.4,280.8z"/>
<path class="st0" d="M1173,247.6c-2,1.6-3.4,3.4-4.3,3.2c-1.3-0.3-2.4-2-3.6-3.2c1.1-1,2.1-2.8,3.3-2.9
	C1169.5,244.6,1170.9,246.2,1173,247.6z"/>
<path class="st0" d="M1144,213.4c-2,1.6-3.4,3.4-4.3,3.2c-1.3-0.3-2.4-2-3.6-3.2c1.1-1,2.1-2.8,3.3-2.9
	C1140.6,210.4,1141.9,212,1144,213.4z"/>
<path class="st0" d="M1116.1,180.9c-2.2,1.3-3.7,3-4.6,2.7c-1.3-0.4-2.2-2.3-3.2-3.5c1.2-0.9,2.4-2.6,3.6-2.6
	C1113,177.5,1114.1,179.2,1116.1,180.9z"/>
<path class="st0" d="M1230.4,597.2c1.6,2.6,3.3,4.2,3.3,5.6c-0.1,1.2-2.6,3.5-3.5,3.2c-1.5-0.4-3.3-2.3-3.6-3.8
	C1226.5,601.1,1228.5,599.6,1230.4,597.2z"/>
<path class="st0" d="M1258.5,640.8c-1.8-2.1-3.9-3.5-3.8-4.6c0.2-1.5,2.1-2.9,3.2-4.3c1.3,1.2,3.4,2.3,3.7,3.8
	C1261.9,636.8,1260,638.4,1258.5,640.8z"/>
<path class="st0" d="M1189.3,619.8c1.6,2.6,3.3,4.2,3.3,5.6c-0.1,1.2-2.6,3.5-3.5,3.2c-1.5-0.4-3.3-2.3-3.6-3.8
	C1185.4,623.7,1187.5,622.2,1189.3,619.8z"/>
<path class="st0" d="M1095.3,638.5c1.6,2.6,3.3,4.2,3.3,5.6c-0.1,1.2-2.6,3.5-3.5,3.2c-1.5-0.4-3.3-2.3-3.6-3.8
	C1091.4,642.4,1093.5,640.9,1095.3,638.5z"/>
<path class="st0" d="M1034.2,634.1c1.6,2.6,3.3,4.2,3.3,5.6c-0.1,1.2-2.6,3.5-3.5,3.2c-1.5-0.4-3.3-2.3-3.6-3.8
	C1030.3,638,1032.3,636.5,1034.2,634.1z"/>
<path class="st0" d="M1291.6,600.7c1.6,2.6,3.3,4.2,3.3,5.6c-0.1,1.2-2.6,3.5-3.5,3.2c-1.5-0.4-3.3-2.3-3.6-3.8
	C1287.7,604.6,1289.7,603.1,1291.6,600.7z"/>
<path class="st0" d="M1319.7,644.2c-1.8-2.1-3.9-3.5-3.8-4.6c0.2-1.5,2.1-2.9,3.2-4.3c1.3,1.2,3.4,2.3,3.7,3.8
	C1323.1,640.3,1321.2,641.9,1319.7,644.2z"/>
<path class="st0" d="M1348.5,669.1c1.3,1.9,2.9,3.3,2.6,4.1c-0.4,1.2-2.1,2.1-3.2,3.1c-0.9-1.1-2.4-2.2-2.4-3.3
	C1345.5,672,1347,670.9,1348.5,669.1z"/>
<path class="st0" d="M1359.9,613.5c-2.2-3.3-4.9-5.4-4.6-7c0.4-2,3.2-3.6,4.9-5.3c1.6,1.8,4.4,3.5,4.6,5.5
	C1365.1,608.4,1362.4,610.4,1359.9,613.5z"/>
<path class="st0" d="M1393.6,640.4c-1.9,1.3-4,3.8-5.6,3.6c-1.8-0.2-4.2-2.9-4.6-4.8c-0.2-1.3,2.7-4.3,4.4-4.4
	c1.9-0.1,3.9,2.2,5.8,3.4C1393.6,639,1393.6,639.7,1393.6,640.4z"/>
<path class="st0" d="M1393.4,587.2c-2.2-3.3-4.9-5.4-4.6-7c0.4-2,3.2-3.6,4.9-5.3c1.6,1.8,4.4,3.5,4.6,5.5
	C1398.6,582,1395.9,584.1,1393.4,587.2z"/>
<path class="st0" d="M1427.2,614.1c-1.9,1.3-4,3.8-5.6,3.6c-1.8-0.2-4.2-2.9-4.6-4.8c-0.2-1.3,2.7-4.3,4.4-4.4
	c1.9-0.1,3.9,2.2,5.8,3.4C1427.1,612.6,1427.2,613.4,1427.2,614.1z"/>
<path class="st0" d="M1409.1,400.9c-2.2-3-4.6-4.8-4.5-6.3c0.1-1.6,2.5-4.3,4-4.4c1.5-0.1,4.1,2.4,4.4,4
	C1413.2,395.7,1411.1,397.7,1409.1,400.9z"/>
<path class="st0" d="M1437.1,423.9c1.3,2.2,3,3.7,2.7,4.6c-0.4,1.3-2.3,2.1-3.6,3.2c-0.9-1.2-2.5-2.4-2.5-3.6
	C1433.7,426.9,1435.4,425.8,1437.1,423.9z"/>
<path class="st0" d="M239.6,634.9c0,4.8-3.6,8.5-8.5,8.4c-4.8,0-8.4-3.8-8.3-8.6c0.1-4.6,3.6-8.1,8.2-8.2
	C235.8,626.5,239.5,630.1,239.6,634.9z"/>
<path class="st0" d="M288.7,630c4.8,0,8.5,3.5,8.6,8.3c0.1,4.8-3.4,8.6-8.2,8.7c-5,0.2-8.9-3.5-8.9-8.5
	C280.3,633.6,283.9,630,288.7,630z"/>
<path class="st0" d="M354.9,633.9c4.8,0,8.5,3.5,8.6,8.3c0.1,4.8-3.4,8.6-8.2,8.7c-5,0.2-8.9-3.5-8.9-8.5
	C346.5,637.5,350.1,633.9,354.9,633.9z"/>
<path class="st0" d="M415.1,654.2c-3.9,0.1-7.3-3.1-7.4-7c-0.1-3.9,3.1-7.3,7-7.4c3.9-0.1,7.3,3.1,7.4,7
	C422.2,650.8,419,654.1,415.1,654.2z"/>
<path class="st0" d="M766.6,646.7c0.1,5.5-4,9.9-9.6,10c-5.5,0.1-9.8-4.2-9.8-9.7c0-5.3,4-9.5,9.3-9.7
	C762.1,637.1,766.5,641.2,766.6,646.7z"/>
<path class="st0" d="M818.4,644.5c5.5,0,9.7,4.3,9.7,9.9c-0.1,5.5-4.5,9.7-10,9.5c-5.3-0.2-9.4-4.3-9.4-9.6
	C808.6,648.8,812.9,644.5,818.4,644.5z"/>
<path class="st0" d="M541.2,656.5c-0.3,3.8-2.2,6.2-6.1,6.5c-3.7,0.3-6.7-2.7-6.5-6.3c0.2-3.9,2.4-6.1,6.2-6.1
	C538.8,650.4,540.7,652.8,541.2,656.5z"/>
<path class="st0" d="M481.9,648.8c-0.3,3.8-2.2,6.2-6.1,6.5c-3.7,0.3-6.7-2.7-6.5-6.3c0.2-3.9,2.4-6.1,6.2-6.1
	C479.5,642.7,481.4,645,481.9,648.8z"/>
<path class="st0" d="M173.5,631.6c0,4.8-3.6,8.5-8.5,8.4c-4.8,0-8.4-3.8-8.3-8.6c0.1-4.6,3.6-8.1,8.2-8.2
	C169.8,623.2,173.4,626.8,173.5,631.6z"/>
<path class="st0" d="M137.3,605.5c-3.7,0.1-7-3.1-7.1-6.9c-0.1-3.7,3.1-7,6.8-7.1c3.7-0.1,7,3.1,7.1,6.9
	C144.2,602.2,141,605.5,137.3,605.5z"/>
<path class="st0" d="M103.5,628.5c-3.7-0.5-6-2.4-6.1-6.3c-0.1-3.7,2.9-6.6,6.6-6.3c3.9,0.3,6,2.6,5.9,6.5
	C109.7,626.2,107.3,628.1,103.5,628.5z"/>
<path class="st0" d="M80.8,588.1c-2.9,1.9-4.8,4.1-6.1,3.8c-1.7-0.4-2.9-2.8-4.3-4.3c1.5-1.3,2.9-3.5,4.5-3.6
	C76.4,583.9,78,586.1,80.8,588.1z"/>
<path class="st0" d="M42.4,626.5c-3.7-0.5-6-2.4-6.1-6.3c-0.1-3.7,2.9-6.6,6.6-6.3c3.9,0.3,6,2.6,5.9,6.5
	C48.6,624.3,46.2,626.2,42.4,626.5z"/>
<path class="st0" d="M19.7,586.2c-2.9,1.9-4.8,4.1-6.1,3.8c-1.7-0.4-2.9-2.8-4.3-4.3c1.5-1.3,2.9-3.5,4.5-3.6
	C15.3,582,16.9,584.1,19.7,586.2z"/>
<path class="st0" d="M70.1,660.5c-3.7-0.5-6-2.4-6.1-6.3c-0.1-3.7,2.9-6.6,6.6-6.3c3.9,0.3,6,2.6,5.9,6.5
	C76.3,658.3,73.9,660.2,70.1,660.5z"/>
</svg>
