<svg width="30" height="36" viewBox="0 0 30 36" fill="none" xmlns="http://www.w3.org/2000/svg">
<path d="M15 34.6001C1.77778 23.1456 2.55556 20.0911 1 14.7456H29C29 21.6183 22.7778 30.0183 15 34.6001Z" fill="white" stroke="black" stroke-width="1.08333"/>
<path d="M29 14.7454H1C1.25926 10.6727 4.11111 1.76364 15 1C25.1111 1 28.7407 10.1636 29 14.7454Z" fill="#CD3131" stroke="black" stroke-width="1.08333"/>
<path d="M29 14.7454C29 25.4363 15 34.5999 15 34.5999C15 34.5999 1 25.4363 1 14.7454C1 11.0999 2.475 7.60371 5.10051 5.02594C7.72601 2.44818 11.287 1 15 1C18.713 1 22.274 2.44818 24.8995 5.02594C27.525 7.60371 29 11.0999 29 14.7454Z" stroke="black" stroke-width="1.5" stroke-linecap="round" stroke-linejoin="round"/>
<path d="M15.0002 19.3272C16.2378 19.3272 17.4248 18.8445 18.3 17.9852C19.1752 17.126 19.6668 15.9606 19.6668 14.7454C19.6668 13.5302 19.1752 12.3648 18.3 11.5056C17.4248 10.6463 16.2378 10.1636 15.0002 10.1636C13.7625 10.1636 12.5755 10.6463 11.7003 11.5056C10.8252 12.3648 10.3335 13.5302 10.3335 14.7454C10.3335 15.9606 10.8252 17.126 11.7003 17.9852C12.5755 18.8445 13.7625 19.3272 15.0002 19.3272Z" fill="white" stroke="black" stroke-width="1.625" stroke-linecap="round" stroke-linejoin="round"/>
<path d="M1 14.7456L10.8 14.7456M19.2 14.7456L29 14.7456" stroke="black" stroke-width="1.625"/>
</svg>
