<svg width="30" height="30" viewBox="0 0 30 30" fill="none" xmlns="http://www.w3.org/2000/svg">
<path d="M0.75012 15.0002C0.75012 16.8387 1.11223 18.6592 1.81578 20.3578C2.51933 22.0563 3.55054 23.5997 4.85054 24.8997C6.15053 26.1997 7.69384 27.231 9.39236 27.9346C11.0909 28.6381 12.9114 29.0002 14.7498 29.0002C16.5883 29.0002 18.4087 28.6381 20.1073 27.9346C21.8058 27.231 23.3491 26.1997 24.6491 24.8997C25.9491 23.5997 26.9803 22.0563 27.6838 20.3578C28.3874 18.6592 28.7495 16.8387 28.7495 15.0002L14.7498 15.0002H0.75012Z" fill="white"/>
<path d="M28.7501 15.0001C28.7501 13.1615 28.388 11.341 27.6845 9.64247C26.9809 7.94391 25.9497 6.40055 24.6497 5.10052C23.3497 3.8005 21.8064 2.76926 20.1079 2.06569C18.4094 1.36212 16.5889 1 14.7504 1C12.912 1 11.0915 1.36212 9.39298 2.06569C7.69445 2.76926 6.15114 3.8005 4.85115 5.10052C3.55116 6.40055 2.51995 7.94391 1.8164 9.64247C1.11284 11.341 0.750732 13.1616 0.750732 15.0001L14.7504 15.0001H28.7501Z" fill="#CD3131"/>
<path d="M14.7497 29.0001C22.4817 29.0001 28.7494 22.7323 28.7494 15.0001C28.7494 7.26783 22.4817 1 14.7497 1C7.01766 1 0.75 7.26783 0.75 15.0001C0.75 22.7323 7.01766 29.0001 14.7497 29.0001Z" stroke="black" stroke-width="1.5" stroke-linecap="round" stroke-linejoin="round"/>
<path d="M14.7492 19.2003C15.8631 19.2003 16.9314 18.7578 17.719 17.9702C18.5066 17.1825 18.9491 16.1142 18.9491 15.0003C18.9491 13.8864 18.5066 12.8181 17.719 12.0304C16.9314 11.2428 15.8631 10.8003 14.7492 10.8003C13.6353 10.8003 12.5671 11.2428 11.7794 12.0304C10.9918 12.8181 10.5493 13.8864 10.5493 15.0003C10.5493 16.1142 10.9918 17.1825 11.7794 17.9702C12.5671 18.7578 13.6353 19.2003 14.7492 19.2003Z" fill="white" stroke="black" stroke-width="1.5" stroke-linecap="round" stroke-linejoin="round"/>
<path d="M0.75 15.0002H10.5498M18.9496 15.0002H28.7494" stroke="black" stroke-width="1.5"/>
</svg>
